<svg xmlns="http://www.w3.org/2000/svg" width="1120" height="880" viewBox="0 0 1120 880"><rect x="0" y="0" width="1120" height="880" fill="#ffffff"/><text x="32" y="36.8" font-family="Comic Sans MS, Chalkboard SE, Bradley Hand, cursive" font-size="17.6" fill="#3a3a3a" text-anchor="start" font-weight="bold">Application Shell</text><path d="M 23.9 54.5 L 143 55.2 L 262.2 54.9 L 381.3 54.8 L 500.4 53.9 L 619.6 55.2 L 738.7 53.4 L 857.8 54.4 L 977 54.1 L 1096.1 54.2" fill="none" stroke="#3a3a3a" stroke-width="1.4" stroke-linecap="round"/><rect x="32" y="76" width="1056" height="580" fill="#ffffff"/><path d="M 22.7 75.5 L 142.1 76.7 L 261.5 75.1 L 380.9 77.3 L 500.3 75.1 L 619.7 75.5 L 739.1 74.8 L 858.5 75.8 L 977.9 75.7 L 1097.3 76 M 1088 70.8 L 1089.3 136.4 L 1087.3 202 L 1087.4 267.6 L 1087.8 333.2 L 1087.6 398.8 L 1087 464.4 L 1086.8 530 L 1088 595.6 L 1088 661.2 M 1096.2 655.5 L 977 656.1 L 857.9 657 L 738.7 655 L 619.6 655.8 L 500.4 655.9 L 381.3 656.5 L 262.1 656.4 L 143 656.9 L 23.8 656.1 M 32 661.6 L 32 595.9 L 33 530.2 L 31.5 464.5 L 33 398.8 L 33.2 333.2 L 31.3 267.5 L 31.2 201.8 L 32 136.1 L 32.3 70.4" fill="none" stroke="#3a3a3a" stroke-width="1.8" stroke-linecap="round"/><path d="M 25.5 75.8 L 144.3 75.6 L 263.1 75.1 L 381.8 76.1 L 500.6 76.9 L 619.4 76.5 L 738.2 74.7 L 856.9 75.6 L 975.7 76.5 L 1094.5 76.1 M 1087.8 75.7 L 1088.8 96 L 1087.6 116.3 M 1094.6 116 L 975.8 114.7 L 857 115.3 L 738.2 116 L 619.4 116.7 L 500.6 116.1 L 381.8 114.9 L 263 115.8 L 144.2 117.2 L 25.4 115.6 M 31.8 116.4 L 31.4 96 L 32.2 75.6" fill="none" stroke="#3a3a3a" stroke-width="1.8" stroke-linecap="round"/><path d="M 51.1 92.6 L 52.8 92.5 L 54.5 92.7 L 55.7 93.9 L 57.3 95.4 L 57.2 97.5 L 55.4 98.8 L 54.1 100.3 L 51.9 100.5 L 50.7 98.7 L 49.3 97.6 L 48.7 95.8 L 49.7 94.2 L 50.9 93 L 52.5 92.6" fill="none" stroke="#3a3a3a" stroke-width="1.4" stroke-linecap="round"/><path d="M 70.1 97.5 L 69.4 99.1 L 67.8 99.8 L 66 99.5 L 64 99.2 L 63.1 97.3 L 62.7 95.2 L 64.3 93.8 L 65.2 91.8 L 67.3 91.9 L 69 92.8 L 70.7 93.7 L 71.8 95.5 L 71.6 97.7 L 69.7 98.8" fill="none" stroke="#3a3a3a" stroke-width="1.4" stroke-linecap="round"/><path d="M 82.8 99.3 L 81.1 100.1 L 79.5 99.1 L 78.4 97.8 L 78.2 96.1 L 78.3 94.4 L 79.3 92.9 L 81 92.6 L 82.8 92.3 L 84.4 93.1 L 85.9 94.6 L 85.7 96.7 L 84.6 98.2 L 83.5 99.8 L 81.5 99.5" fill="none" stroke="#3a3a3a" stroke-width="1.4" stroke-linecap="round"/><path d="M 98.5 85.6 L 149.2 85.2 L 199.9 84.5 L 250.6 85.3 L 301.4 86.3 L 352.1 86.6 L 402.8 84.8 L 453.5 86 M 452.2 85.4 L 452.8 96 L 451.5 106.6 M 454 106.5 L 403.1 107.1 L 352.3 105.5 L 301.4 107.6 L 250.6 106.3 L 199.7 107.2 L 148.9 106.6 L 98 106.8 M 100.1 106.6 L 99.2 96 L 100.2 85.4" fill="none" stroke="#3a3a3a" stroke-width="1.8" stroke-linecap="round"/><text x="112.8" y="99.2" font-family="Comic Sans MS, Chalkboard SE, Bradley Hand, cursive" font-size="9" fill="#9a9a9a" text-anchor="start">VMSpark — /jobs/job_listings</text><path d="M 112 113.6 L 111.9 174.1 L 113 234.7 L 110.9 295.2 L 111.2 355.7 L 110.9 416.3 L 113.2 476.8 L 111.3 537.3 L 112.1 597.9 L 112 658.4" fill="none" stroke="#3a3a3a" stroke-width="1.8" stroke-linecap="round"/><rect x="62.6" y="135.4" width="18.8" height="18.8" rx="3" fill="#4a4a4a"/><path d="M 61.5 134.7 L 72 135.7 L 82.5 134 M 81.9 134.2 L 81.8 144.8 L 82.8 155.4 M 82.6 154.8 L 72 155 L 61.4 155.5 M 61.7 155.4 L 61.2 144.8 L 61.2 134.2" fill="none" stroke="#3a3a3a" stroke-width="1.8" stroke-linecap="round"/><text x="72" y="168" font-family="Comic Sans MS, Chalkboard SE, Bradley Hand, cursive" font-size="9" fill="#3a3a3a" text-anchor="middle" font-weight="bold">Jobs</text><path d="M 70.6 194.3 L 72 194.4 L 73.4 194.2" fill="none" stroke="#e6e6e6" stroke-width="1.5" stroke-linecap="round"/><path d="M 61.5 184.1 L 72 185.2 L 82.5 184.1 M 82.4 183.9 L 82 194.4 L 81.9 204.9 M 82.5 204.7 L 72 205.8 L 61.5 204.8 M 61.3 205 L 61.7 194.4 L 61.8 183.8" fill="none" stroke="#3a3a3a" stroke-width="1.8" stroke-linecap="round"/><text x="72" y="217.6" font-family="Comic Sans MS, Chalkboard SE, Bradley Hand, cursive" font-size="9" fill="#9a9a9a" text-anchor="middle">Mapping</text><path d="M 69.1 243.4 L 72 243.4 L 74.9 243.5" fill="none" stroke="#e6e6e6" stroke-width="1.5" stroke-linecap="round"/><path d="M 61.5 234 L 72 234.6 L 82.5 233.5 M 81.9 233.5 L 82.2 244 L 82 254.5 M 82.5 253.9 L 72 253.2 L 61.5 254.7 M 61.5 254.5 L 61.4 244 L 61.4 233.5" fill="none" stroke="#3a3a3a" stroke-width="1.8" stroke-linecap="round"/><text x="72" y="267.2" font-family="Comic Sans MS, Chalkboard SE, Bradley Hand, cursive" font-size="9" fill="#9a9a9a" text-anchor="middle">Rate Plans</text><path d="M 69.4 293.2 L 72 293.4 L 74.6 293.6" fill="none" stroke="#e6e6e6" stroke-width="1.5" stroke-linecap="round"/><path d="M 61.4 283.7 L 72 283.6 L 82.6 282.9 M 82.6 283.1 L 81.6 293.6 L 82.2 304.1 M 82.5 304.1 L 72 304.7 L 61.5 304.3 M 61.3 304.2 L 61.3 293.6 L 61.1 283" fill="none" stroke="#3a3a3a" stroke-width="1.8" stroke-linecap="round"/><text x="72" y="316.8" font-family="Comic Sans MS, Chalkboard SE, Bradley Hand, cursive" font-size="9" fill="#9a9a9a" text-anchor="middle">Settings</text><path d="M 72.3 343.6 L 72 343 L 71.7 343.4" fill="none" stroke="#e6e6e6" stroke-width="1.5" stroke-linecap="round"/><path d="M 61.4 333.2 L 72 332.4 L 82.6 332.5 M 82.6 332.6 L 82.4 343.2 L 82 353.8 M 82.6 353.2 L 72 352.9 L 61.4 353.4 M 61.6 353.8 L 60.9 343.2 L 61.8 332.6" fill="none" stroke="#3a3a3a" stroke-width="1.8" stroke-linecap="round"/><text x="72" y="366.4" font-family="Comic Sans MS, Chalkboard SE, Bradley Hand, cursive" font-size="9" fill="#9a9a9a" text-anchor="middle">Admin</text><text x="72" y="377.6" font-family="Comic Sans MS, Chalkboard SE, Bradley Hand, cursive" font-size="9" fill="#9a9a9a" text-anchor="middle">owner only</text><path d="M 52.6 543.6 L 72 543.1 L 91.4 543.6" fill="none" stroke="#3a3a3a" stroke-width="1.4" stroke-linecap="round"/><path d="M 69.4 570.4 L 72 570.9 L 74.6 570" fill="none" stroke="#e6e6e6" stroke-width="1.5" stroke-linecap="round"/><path d="M 61.5 559.6 L 72 559.3 L 82.5 560.4 M 82.1 559.8 L 81.6 570.4 L 82.9 581 M 82.6 581.2 L 72 580.3 L 61.4 580.8 M 61.8 580.9 L 61.9 570.4 L 61.2 559.9" fill="none" stroke="#3a3a3a" stroke-width="1.8" stroke-linecap="round"/><text x="72" y="593.6" font-family="Comic Sans MS, Chalkboard SE, Bradley Hand, cursive" font-size="9" fill="#9a9a9a" text-anchor="middle">Density</text><path d="M 68 614.9 L 72 616.4 L 76 615.4" fill="none" stroke="#e6e6e6" stroke-width="1.5" stroke-linecap="round"/><path d="M 61.5 605.2 L 72 603.7 L 82.5 604.9 M 82.5 604.6 L 82.5 615.2 L 82.9 625.8 M 82.5 625.1 L 72 626.7 L 61.5 625.6 M 61.5 625.7 L 61.4 615.2 L 61.7 604.7" fill="none" stroke="#3a3a3a" stroke-width="1.8" stroke-linecap="round"/><text x="72" y="638.4" font-family="Comic Sans MS, Chalkboard SE, Bradley Hand, cursive" font-size="9" fill="#9a9a9a" text-anchor="middle">Help</text><path d="M 352.3 112.2 L 352.5 173.1 L 352.4 233.9 L 350.9 294.7 L 353 355.6 L 352.2 416.4 L 352.6 477.3 L 352.6 538.1 L 351.5 598.9 L 352.1 659.8" fill="none" stroke="#3a3a3a" stroke-width="1.8" stroke-linecap="round"/><text x="136" y="147.2" font-family="Comic Sans MS, Chalkboard SE, Bradley Hand, cursive" font-size="9" fill="#9a9a9a" text-anchor="start">AREA</text><text x="136" y="171.2" font-family="Comic Sans MS, Chalkboard SE, Bradley Hand, cursive" font-size="14.4" fill="#3a3a3a" text-anchor="start" font-weight="bold">Job Listings</text><path d="M 118.6 206.7 L 163.9 207.6 L 209.3 207.8 L 254.7 207.9 L 300.1 206.1 L 345.4 206.7" fill="none" stroke="#e6e6e6" stroke-width="1.5" stroke-linecap="round"/><path d="M 109.9 191.7 L 158.8 193.1 L 207.6 191.6 L 256.4 192.1 L 305.2 190.8 L 354.1 192.4 M 352.4 191.8 L 351.1 207.2 L 352.5 222.6 M 354.1 222.4 L 305.3 223.2 L 256.4 223.2 L 207.6 223 L 158.7 222.1 L 109.9 222.2 M 112 222.7 L 111.3 207.2 L 111.8 191.7" fill="none" stroke="#3a3a3a" stroke-width="1.4" stroke-linecap="round"/><rect x="113" y="193" width="1.2" height="28.4" rx="3" fill="#4a4a4a"/><path d="M 112 192.2 L 113.6 192.9 L 115.2 192.3 M 114.9 191.9 L 115.7 207.2 L 114.9 222.5 M 115.2 222 L 113.6 222.5 L 112 222.8 M 112.2 222.6 L 113.2 207.2 L 112.3 191.8" fill="none" stroke="#3a3a3a" stroke-width="1.4" stroke-linecap="round"/><text x="136" y="212" font-family="Comic Sans MS, Chalkboard SE, Bradley Hand, cursive" font-size="11.2" fill="#3a3a3a" text-anchor="start" font-weight="bold">Job Listings</text><path d="M 316.3 210.5 L 316.8 205.6 L 317.9 200.9 L 321.7 197.7 L 326.6 197 L 331.6 197.6 L 334.7 201.5 L 336.2 206 L 336.2 210.8 L 333.2 214.6 L 329 216.8 L 324.1 218.1 L 319.7 215.4 L 316.6 211.5 L 316 206.5" fill="none" stroke="#3a3a3a" stroke-width="1.4" stroke-linecap="round"/><text x="326.4" y="210.4" font-family="Comic Sans MS, Chalkboard SE, Bradley Hand, cursive" font-size="9" fill="#3a3a3a" text-anchor="middle">12</text><text x="136" y="246.4" font-family="Comic Sans MS, Chalkboard SE, Bradley Hand, cursive" font-size="11.2" fill="#3a3a3a" text-anchor="start">Manual Jobs</text><text x="136" y="280" font-family="Comic Sans MS, Chalkboard SE, Bradley Hand, cursive" font-size="11.2" fill="#3a3a3a" text-anchor="start">Direct Client Jobs</text><text x="136" y="313.6" font-family="Comic Sans MS, Chalkboard SE, Bradley Hand, cursive" font-size="11.2" fill="#3a3a3a" text-anchor="start">Candidates</text><text x="136" y="347.2" font-family="Comic Sans MS, Chalkboard SE, Bradley Hand, cursive" font-size="11.2" fill="#3a3a3a" text-anchor="start">Candidate Profiles</text><text x="136" y="380.8" font-family="Comic Sans MS, Chalkboard SE, Bradley Hand, cursive" font-size="11.2" fill="#9a9a9a" text-anchor="start">Applications &amp; Matches</text><path d="M 347.3 172 L 430.1 171.4 L 512.9 171.4 L 595.8 171.7 L 678.6 173.1 L 761.4 173.1 L 844.2 172.9 L 927.1 171.1 L 1009.9 172.1 L 1092.7 172.4" fill="none" stroke="#3a3a3a" stroke-width="1.8" stroke-linecap="round"/><text x="376" y="137.6" font-family="Comic Sans MS, Chalkboard SE, Bradley Hand, cursive" font-size="9" fill="#9a9a9a" text-anchor="start">WORKSPACE</text><text x="376" y="156.8" font-family="Comic Sans MS, Chalkboard SE, Bradley Hand, cursive" font-size="12" fill="#3a3a3a" text-anchor="start" font-weight="bold">Cascade Staffing Group</text><path d="M 540.6 150.6 L 544.3 152.5 L 546.1 156.4" fill="none" stroke="#3a3a3a" stroke-width="1.8" stroke-linecap="round"/><path d="M 546.2 155.9 L 549.4 153.4 L 552.1 150.5" fill="none" stroke="#3a3a3a" stroke-width="1.8" stroke-linecap="round"/><path d="M 576.2 130.3 L 627.6 131.4 L 679.1 130.6 L 730.5 129.6 L 782 131.5 L 833.4 130.8 M 831.6 130.2 L 832.7 143.2 L 831.8 156.2 M 833.5 155.8 L 782 156.5 L 730.5 157.1 L 679.1 155.9 L 627.6 157.1 L 576.1 156.5 M 577.4 156.2 L 576.5 143.2 L 577.2 130.2" fill="none" stroke="#3a3a3a" stroke-width="1.8" stroke-linecap="round"/><text x="592" y="147.2" font-family="Comic Sans MS, Chalkboard SE, Bradley Hand, cursive" font-size="9.6" fill="#9a9a9a" text-anchor="start">Search jobs, candidates…</text><path d="M 805.9 143.4 L 808.8 144.5 L 811.7 143.6" fill="none" stroke="#e6e6e6" stroke-width="1.5" stroke-linecap="round"/><path d="M 795 136.2 L 808.8 137.3 L 822.6 136.1 M 822.3 135.9 L 821.8 143.2 L 822.9 150.5 M 822.5 150.2 L 808.8 149.7 L 795.1 150.9 M 795.2 150.5 L 794.7 143.2 L 794.9 135.9" fill="none" stroke="#3a3a3a" stroke-width="1.4" stroke-linecap="round"/><text x="808.8" y="146.4" font-family="Comic Sans MS, Chalkboard SE, Bradley Hand, cursive" font-size="9" fill="#3a3a3a" text-anchor="middle">⌘K</text><path d="M 847.3 130.6 L 896.8 130.4 L 946.4 130.4 L 995.9 130.1 M 995 130.2 L 994.5 143.2 L 995.1 156.2 M 995.9 155.6 L 946.4 155.7 L 896.8 157 L 847.3 156 M 848.3 156.2 L 847.6 143.2 L 848.4 130.2" fill="none" stroke="#3a3a3a" stroke-width="1.8" stroke-linecap="round"/><text x="921.6" y="147.2" font-family="Comic Sans MS, Chalkboard SE, Bradley Hand, cursive" font-size="9.6" fill="#3a3a3a" text-anchor="middle" font-weight="bold">Back to Owner View</text><path d="M 1027.5 141.9 L 1027.2 146.7 L 1024.8 150.9 L 1020.5 153.5 L 1015.5 153.5 L 1010.7 151.8 L 1007.8 147.5 L 1006.8 142.6 L 1008.8 138 L 1012.3 134.8 L 1016.7 132.7 L 1021.8 133 L 1025.9 136.2 L 1028 140.8 L 1028.2 145.9" fill="none" stroke="#3a3a3a" stroke-width="1.4" stroke-linecap="round"/><text x="1035.2" y="147.2" font-family="Comic Sans MS, Chalkboard SE, Bradley Hand, cursive" font-size="9.6" fill="#3a3a3a" text-anchor="start">J. Briley</text><rect x="376" y="196" width="688" height="440" fill="#ffffff"/><path d="M 369.6 196.2 L 447.5 195.7 L 525.3 197.1 L 603.2 196.7 L 681.1 195.9 L 758.9 195.3 L 836.8 194.8 L 914.7 195.6 L 992.5 195.1 L 1070.4 196.3 M 1064 192.8 L 1064 248.6 L 1064 304.4 L 1064.5 360.2 L 1064.8 416 L 1065 471.8 L 1065.1 527.6 L 1063 583.4 L 1063.6 639.2 M 1067.6 636.4 L 990.4 634.7 L 913.1 635 L 835.9 635.9 L 758.6 636.1 L 681.4 636.2 L 604.1 635.4 L 526.9 637.3 L 449.6 635.3 L 372.4 636.4 M 376.3 638.6 L 376.3 582.9 L 376 527.3 L 376.6 471.6 L 376.7 416 L 375.7 360.4 L 375.9 304.7 L 376.9 249.1 L 375.8 193.4" fill="none" stroke="#3a3a3a" stroke-width="1.8" stroke-linecap="round" stroke-dasharray="7 5"/><text x="720" y="400" font-family="Comic Sans MS, Chalkboard SE, Bradley Hand, cursive" font-size="12.8" fill="#3a3a3a" text-anchor="middle" font-weight="bold">Page content — see sheets 02–10</text><text x="720" y="419.2" font-family="Comic Sans MS, Chalkboard SE, Bradley Hand, cursive" font-size="9.6" fill="#9a9a9a" text-anchor="middle">Every screen renders inside this region. The shell around it never re-mounts.</text><rect x="400" y="512" width="640" height="100" fill="#ffffff"/><path d="M 394.8 512 L 467 512.5 L 539.3 510.7 L 611.6 512.4 L 683.9 512.1 L 756.1 513.3 L 828.4 511.9 L 900.7 511.8 L 973 512.1 L 1045.2 511.7 M 1040.3 511.4 L 1040.7 545.1 L 1040.9 578.9 L 1040.4 612.6 M 1044 612.3 L 972 612.2 L 900 611 L 828 612.1 L 756 612.9 L 684 611.9 L 612 612.7 L 540 610.8 L 468 611.7 L 396 612.5 M 399.6 612.8 L 399.4 578.9 L 399.2 545.1 L 400.4 511.2" fill="none" stroke="#3a3a3a" stroke-width="1.8" stroke-linecap="round"/><text x="417.6" y="538.4" font-family="Comic Sans MS, Chalkboard SE, Bradley Hand, cursive" font-size="10.4" fill="#3a3a3a" text-anchor="start" font-weight="bold">What the audit found, and what the shell absorbs</text><path d="M 414.8 549.5 L 482.6 549.3 L 550.4 549.5 L 618.3 549.4 L 686.1 549.8 L 753.9 550.5 L 821.7 549.4 L 889.6 549 L 957.4 549.1 L 1025.2 549.4" fill="none" stroke="#3a3a3a" stroke-width="1.4" stroke-linecap="round"/><text x="417.6" y="573.6" font-family="Comic Sans MS, Chalkboard SE, Bradley Hand, cursive" font-size="9" fill="#3a3a3a" text-anchor="start">Button styles</text><text x="593.6" y="573.6" font-family="Comic Sans MS, Chalkboard SE, Bradley Hand, cursive" font-size="9" fill="#3a3a3a" text-anchor="end" font-weight="bold">8+ → 1</text><text x="625.6" y="573.6" font-family="Comic Sans MS, Chalkboard SE, Bradley Hand, cursive" font-size="9" fill="#3a3a3a" text-anchor="start">Form elements</text><text x="801.6" y="573.6" font-family="Comic Sans MS, Chalkboard SE, Bradley Hand, cursive" font-size="9" fill="#3a3a3a" text-anchor="end" font-weight="bold">10+ → 1</text><text x="833.6" y="573.6" font-family="Comic Sans MS, Chalkboard SE, Bradley Hand, cursive" font-size="9" fill="#3a3a3a" text-anchor="start">Form patterns</text><text x="1022.4" y="573.6" font-family="Comic Sans MS, Chalkboard SE, Bradley Hand, cursive" font-size="9" fill="#3a3a3a" text-anchor="end" font-weight="bold">5 → 1</text><text x="417.6" y="596" font-family="Comic Sans MS, Chalkboard SE, Bradley Hand, cursive" font-size="9" fill="#3a3a3a" text-anchor="start">Table conventions</text><text x="593.6" y="596" font-family="Comic Sans MS, Chalkboard SE, Bradley Hand, cursive" font-size="9" fill="#3a3a3a" text-anchor="end" font-weight="bold">6+ → 1</text><text x="625.6" y="596" font-family="Comic Sans MS, Chalkboard SE, Bradley Hand, cursive" font-size="9" fill="#3a3a3a" text-anchor="start">Labelling rules</text><text x="801.6" y="596" font-family="Comic Sans MS, Chalkboard SE, Bradley Hand, cursive" font-size="9" fill="#3a3a3a" text-anchor="end" font-weight="bold">4+ → 1</text><text x="833.6" y="596" font-family="Comic Sans MS, Chalkboard SE, Bradley Hand, cursive" font-size="9" fill="#3a3a3a" text-anchor="start">Views off-token</text><text x="1022.4" y="596" font-family="Comic Sans MS, Chalkboard SE, Bradley Hand, cursive" font-size="9" fill="#3a3a3a" text-anchor="end" font-weight="bold">~40 → 0</text><text x="32" y="694.4" font-family="Comic Sans MS, Chalkboard SE, Bradley Hand, cursive" font-size="9" fill="#3a3a3a" text-anchor="start" font-weight="bold">STATE VARIANTS</text><text x="136" y="694.4" font-family="Comic Sans MS, Chalkboard SE, Bradley Hand, cursive" font-size="9" fill="#9a9a9a" text-anchor="start">the same frame, re-shaped by role and preference</text><rect x="32" y="708" width="339.2" height="152" fill="#ffffff"/><path d="M 30 707.7 L 79 708.6 L 128.1 707.7 L 177.1 708.2 L 226.1 707.8 L 275.1 706.8 L 324.2 707.3 L 373.2 708.3 M 371.6 707.3 L 372.1 745.7 L 371.7 784 L 372 822.3 L 371.7 860.7 M 373.5 859.8 L 324.4 858.7 L 275.3 859.7 L 226.2 858.8 L 177 859.8 L 127.9 859.1 L 78.8 859 L 29.7 860.2 M 32.3 861.3 L 31.6 822.7 L 31.1 784 L 33.1 745.3 L 31.7 706.7" fill="none" stroke="#3a3a3a" stroke-width="1.8" stroke-linecap="round"/><text x="49.6" y="732.8" font-family="Comic Sans MS, Chalkboard SE, Bradley Hand, cursive" font-size="9" fill="#9a9a9a" text-anchor="start">A · RAIL COLLAPSED</text><path d="M 54.5 763.7 L 58.4 762.9 L 62.3 763.9" fill="none" stroke="#e6e6e6" stroke-width="1.5" stroke-linecap="round"/><path d="M 57.5 784.4 L 58.4 784.5 L 59.3 783.8" fill="none" stroke="#e6e6e6" stroke-width="1.5" stroke-linecap="round"/><path d="M 59.3 804.5 L 58.4 803.3 L 57.5 804" fill="none" stroke="#e6e6e6" stroke-width="1.5" stroke-linecap="round"/><path d="M 56.2 824 L 58.4 825.3 L 60.6 823.7" fill="none" stroke="#e6e6e6" stroke-width="1.5" stroke-linecap="round"/><path d="M 49.4 743.9 L 58.4 744.2 L 67.4 743.7 M 67.4 743.2 L 67.5 777.1 L 66.2 810.9 L 67.5 844.8 M 67.3 844.5 L 58.4 845.2 L 49.5 843.8 M 49.5 844.6 L 48.3 810.9 L 50.1 777.1 L 49.4 743.4" fill="none" stroke="#3a3a3a" stroke-width="1.4" stroke-linecap="round"/><rect x="55.4" y="751.4" width="6" height="6" rx="3" fill="#4a4a4a"/><path d="M 54.3 750.1 L 58.4 749.6 L 62.5 750.5 M 62.5 750.3 L 63.6 754.4 L 62 758.5 M 62.4 758.9 L 58.4 759 L 54.4 758.4 M 54.9 758.4 L 53.4 754.4 L 54.2 750.4" fill="none" stroke="#3a3a3a" stroke-width="1.4" stroke-linecap="round"/><path d="M 54.3 764.8 L 58.4 764.9 L 62.5 765.1 M 62.9 764.7 L 61.4 768.8 L 62.5 772.9 M 62.5 773 L 58.4 773.6 L 54.3 772.4 M 54.7 772.8 L 54.2 768.8 L 53.9 764.8" fill="none" stroke="#3a3a3a" stroke-width="1.4" stroke-linecap="round"/><path d="M 54.4 778.9 L 58.4 778.2 L 62.4 779.3 M 62.9 779.1 L 62.1 783.2 L 62.1 787.3 M 62.5 787.2 L 58.4 787.2 L 54.3 787.4 M 53.9 787.2 L 55.3 783.2 L 54.7 779.2" fill="none" stroke="#3a3a3a" stroke-width="1.4" stroke-linecap="round"/><rect x="76.8" y="744" width="276.8" height="100" fill="#ffffff"/><path d="M 74.7 743.8 L 121.5 743 L 168.4 742.7 L 215.2 744.2 L 262 742.9 L 308.9 744.2 L 355.7 744.4 M 353.6 743.6 L 353 777.2 L 352.5 810.8 L 353.6 844.4 M 355.8 843.7 L 308.9 842.8 L 262.1 843.8 L 215.2 842.7 L 168.3 844.9 L 121.5 844.2 L 74.6 843.7 M 76.6 844.9 L 76.3 811 L 76.2 777 L 76.8 743.1" fill="none" stroke="#3a3a3a" stroke-width="1.4" stroke-linecap="round" stroke-dasharray="7 5"/><text x="215.2" y="790.4" font-family="Comic Sans MS, Chalkboard SE, Bradley Hand, cursive" font-size="9" fill="#9a9a9a" text-anchor="middle">Panel hidden — content gains 280px.</text><text x="215.2" y="804.8" font-family="Comic Sans MS, Chalkboard SE, Bradley Hand, cursive" font-size="9" fill="#9a9a9a" text-anchor="middle">Hover re-opens it as an overlay.</text><rect x="390.4" y="708" width="339.2" height="152" fill="#ffffff"/><path d="M 388.1 708.4 L 437.2 707.5 L 486.3 708.3 L 535.4 707.1 L 584.6 707.6 L 633.7 709 L 682.8 706.8 L 731.9 708.1 M 729.2 706.7 L 729.6 745.4 L 729.7 784 L 728.6 822.6 L 729.6 861.3 M 732.2 860.1 L 683 860.8 L 633.8 861.1 L 584.6 860.8 L 535.4 860 L 486.2 859.7 L 437 859.5 L 387.8 860 M 390.9 861.4 L 390.4 822.7 L 391.4 784 L 389.9 745.3 L 390.5 706.6" fill="none" stroke="#3a3a3a" stroke-width="1.8" stroke-linecap="round"/><text x="408" y="732.8" font-family="Comic Sans MS, Chalkboard SE, Bradley Hand, cursive" font-size="9" fill="#9a9a9a" text-anchor="start">B · READ-ONLY USER</text><path d="M 417.4 764.5 L 416.8 762.8 L 416.2 763.8" fill="none" stroke="#e6e6e6" stroke-width="1.5" stroke-linecap="round"/><path d="M 414.2 784.4 L 416.8 782.8 L 419.4 784" fill="none" stroke="#e6e6e6" stroke-width="1.5" stroke-linecap="round"/><path d="M 417.1 803.8 L 416.8 803.8 L 416.5 804.5" fill="none" stroke="#e6e6e6" stroke-width="1.5" stroke-linecap="round"/><path d="M 416.5 823.8 L 416.8 822.6 L 417.1 823.6" fill="none" stroke="#e6e6e6" stroke-width="1.5" stroke-linecap="round"/><path d="M 407.9 743.9 L 416.8 744 L 425.7 743.8 M 425.4 743.1 L 424.4 777 L 426.6 811 L 425.6 844.9 M 425.7 844.1 L 416.8 843.9 L 407.9 843.9 M 407.5 844.5 L 408.4 810.8 L 407.3 777.2 L 407.8 743.5" fill="none" stroke="#3a3a3a" stroke-width="1.4" stroke-linecap="round"/><rect x="413.8" y="751.4" width="6" height="6" rx="3" fill="#4a4a4a"/><path d="M 412.7 750.1 L 416.8 751.6 L 420.9 750.2 M 420.7 750.4 L 419.6 754.4 L 420.3 758.4 M 420.9 758.4 L 416.8 758.2 L 412.7 758.4 M 412.9 758.4 L 413.1 754.4 L 412.3 750.4" fill="none" stroke="#3a3a3a" stroke-width="1.4" stroke-linecap="round"/><path d="M 412.7 765.2 L 416.8 765.3 L 420.9 764.8 M 421.1 764.7 L 419.8 768.8 L 420.8 772.9 M 420.9 772.8 L 416.8 773.4 L 412.7 773 M 412.3 772.9 L 411.9 768.8 L 412.5 764.7" fill="none" stroke="#3a3a3a" stroke-width="1.4" stroke-linecap="round"/><path d="M 412.8 778.8 L 416.8 778.1 L 420.8 778.8 M 420.6 779.2 L 421.9 783.2 L 420.7 787.2 M 420.9 787.6 L 416.8 787.4 L 412.7 786.8 M 413.1 787.3 L 413.7 783.2 L 413.3 779.1" fill="none" stroke="#3a3a3a" stroke-width="1.4" stroke-linecap="round"/><rect x="435.2" y="744" width="96" height="100" fill="#ffffff"/><path d="M 434.7 744 L 467 744.1 L 499.4 742.7 L 531.7 743.5 M 531 743.5 L 531 777.2 L 531.7 810.8 L 530.9 844.5 M 532 843.6 L 499.5 844.2 L 466.9 843.1 L 434.4 843.6 M 434.9 844.5 L 434.2 810.8 L 435.9 777.2 L 435.7 743.5" fill="none" stroke="#3a3a3a" stroke-width="1.4" stroke-linecap="round"/><path d="M 451 761.7 L 480 760.4 L 509 761.3" fill="none" stroke="#e6e6e6" stroke-width="1.5" stroke-linecap="round"/><path d="M 444.3 753.4 L 480 753.6 L 515.7 753.3 M 515.4 753.5 L 515 761.6 L 515.2 769.7 M 515.8 769.4 L 480 768.4 L 444.2 769.4 M 444.3 769.7 L 443.7 761.6 L 445 753.5" fill="none" stroke="#3a3a3a" stroke-width="1.4" stroke-linecap="round"/><text x="480" y="764.8" font-family="Comic Sans MS, Chalkboard SE, Bradley Hand, cursive" font-size="9" fill="#3a3a3a" text-anchor="middle">READ ONLY</text><path d="M 445.3 784.1 L 480 784.6 L 514.7 784.4" fill="none" stroke="#8e8e8e" stroke-width="4" stroke-linecap="round"/><path d="M 445.5 797.1 L 472.8 797.6 L 500.1 796.7" fill="none" stroke="#8e8e8e" stroke-width="4" stroke-linecap="round"/><path d="M 445.3 809.4 L 476.8 808.8 L 508.3 810" fill="none" stroke="#8e8e8e" stroke-width="4" stroke-linecap="round"/><rect x="540.8" y="744" width="171.2" height="100" fill="#ffffff"/><path d="M 539.4 743.9 L 582.9 745 L 626.4 744.9 L 669.9 743.9 L 713.4 744 M 712.4 743.4 L 712 777.1 L 711.9 810.9 L 712.4 844.6 M 713.6 844 L 670 844.5 L 626.4 843.7 L 582.8 843.6 L 539.2 844.1 M 541.1 844.6 L 540.2 810.9 L 539.6 777.1 L 540.8 743.4" fill="none" stroke="#3a3a3a" stroke-width="1.4" stroke-linecap="round" stroke-dasharray="7 5"/><text x="626.4" y="790.4" font-family="Comic Sans MS, Chalkboard SE, Bradley Hand, cursive" font-size="9" fill="#9a9a9a" text-anchor="middle">Write actions removed,</text><text x="626.4" y="804.8" font-family="Comic Sans MS, Chalkboard SE, Bradley Hand, cursive" font-size="9" fill="#9a9a9a" text-anchor="middle">not just disabled.</text><rect x="748.8" y="708" width="339.2" height="152" fill="#ffffff"/><path d="M 746.4 707.6 L 795.6 706.9 L 844.7 707 L 893.8 706.8 L 943 706.9 L 992.1 706.8 L 1041.2 707.5 L 1090.4 708 M 1088.4 707.1 L 1088 745.6 L 1088.3 784 L 1088 822.4 L 1088 860.9 M 1089.5 860.5 L 1040.6 859.3 L 991.7 858.7 L 942.8 858.8 L 894 858.8 L 845.1 861.1 L 796.2 859.3 L 747.3 859.9 M 748.8 861 L 749.4 822.5 L 749.3 784 L 749.3 745.5 L 749 707" fill="none" stroke="#3a3a3a" stroke-width="1.8" stroke-linecap="round"/><text x="766.4" y="732.8" font-family="Comic Sans MS, Chalkboard SE, Bradley Hand, cursive" font-size="9" fill="#9a9a9a" text-anchor="start">C · CANDIDATE USER</text><path d="M 764.6 743.5 L 815.9 745 L 867.1 743.4 L 918.4 743.4 L 969.7 744.3 L 1020.9 744.9 L 1072.2 744.1 M 1070.1 743.8 L 1070.2 756 L 1069.9 768.2 M 1072.8 767.9 L 1021.4 767.9 L 969.9 768.9 L 918.4 766.9 L 866.9 767.1 L 815.4 768.9 L 764 768.5 M 766 768.2 L 765.2 756 L 766.5 743.8" fill="none" stroke="#3a3a3a" stroke-width="1.4" stroke-linecap="round"/><text x="777.6" y="759.2" font-family="Comic Sans MS, Chalkboard SE, Bradley Hand, cursive" font-size="9" fill="#3a3a3a" text-anchor="start" font-weight="bold">My Jobs</text><text x="820.8" y="759.2" font-family="Comic Sans MS, Chalkboard SE, Bradley Hand, cursive" font-size="9" fill="#9a9a9a" text-anchor="start">Profile</text><text x="856" y="759.2" font-family="Comic Sans MS, Chalkboard SE, Bradley Hand, cursive" font-size="9" fill="#9a9a9a" text-anchor="start">Documents</text><path d="M 1046.1 758.3 L 1046.6 754.4 L 1048.2 750.9 L 1051.1 748.6 L 1054.9 748 L 1058.4 749.3 L 1060.7 752.1 L 1062.3 755.4 L 1061.4 758.9 L 1060 762.7 L 1056.1 763.3 L 1052.3 764.4 L 1049.4 761.6 L 1046.3 759.1 L 1046.2 755.1" fill="none" stroke="#3a3a3a" stroke-width="1.4" stroke-linecap="round"/><rect x="766.4" y="776" width="304" height="68" fill="#ffffff"/><path d="M 764.6 775.5 L 815.8 776.7 L 867.1 777 L 918.4 775.5 L 969.7 775.3 L 1021 776.8 L 1072.2 775.6 M 1070.8 775.7 L 1069.3 810 L 1070 844.3 M 1071.9 844.1 L 1020.7 843.1 L 969.6 843.4 L 918.4 843.2 L 867.2 845 L 816.1 843.4 L 764.9 843.9 M 766.6 844.5 L 765.2 810 L 766.3 775.5" fill="none" stroke="#3a3a3a" stroke-width="1.4" stroke-linecap="round" stroke-dasharray="7 5"/><text x="918.4" y="804.8" font-family="Comic Sans MS, Chalkboard SE, Bradley Hand, cursive" font-size="9" fill="#9a9a9a" text-anchor="middle">No rail, no panel — candidates get a</text><text x="918.4" y="819.2" font-family="Comic Sans MS, Chalkboard SE, Bradley Hand, cursive" font-size="9" fill="#9a9a9a" text-anchor="middle">top-nav consumer shell on the same app.</text></svg>