<svg xmlns="http://www.w3.org/2000/svg" width="1120" height="704" viewBox="0 0 1120 704"><rect x="0" y="0" width="1120" height="704" fill="#ffffff"/><text x="32" y="36.8" font-family="Comic Sans MS, Chalkboard SE, Bradley Hand, cursive" font-size="17.6" fill="#3a3a3a" text-anchor="start" font-weight="bold">Job Listings</text><path d="M 23.9 54.5 L 143 55.2 L 262.2 54.9 L 381.3 54.8 L 500.4 53.9 L 619.6 55.2 L 738.7 53.4 L 857.8 54.4 L 977 54.1 L 1096.1 54.2" fill="none" stroke="#3a3a3a" stroke-width="1.4" stroke-linecap="round"/><rect x="32" y="76" width="1056" height="584" fill="#ffffff"/><path d="M 22.7 75.5 L 142.1 76.7 L 261.5 75.1 L 380.9 77.3 L 500.3 75.1 L 619.7 75.5 L 739.1 74.8 L 858.5 75.8 L 977.9 75.7 L 1097.3 76 M 1088 70.8 L 1089.3 136.8 L 1087.3 202.9 L 1087.4 268.9 L 1087.8 335 L 1087.6 401 L 1087 467.1 L 1086.8 533.1 L 1088 599.2 L 1088 665.2 M 1096.2 659.5 L 977 660.1 L 857.9 661 L 738.7 659 L 619.6 659.8 L 500.4 659.9 L 381.3 660.5 L 262.1 660.4 L 143 660.9 L 23.8 660.1 M 32 665.7 L 32 599.5 L 33 533.4 L 31.5 467.2 L 33 401.1 L 33.2 334.9 L 31.3 268.8 L 31.2 202.6 L 32 136.5 L 32.3 70.3" fill="none" stroke="#3a3a3a" stroke-width="1.8" stroke-linecap="round"/><path d="M 25.5 75.8 L 144.3 75.6 L 263.1 75.1 L 381.8 76.1 L 500.6 76.9 L 619.4 76.5 L 738.2 74.7 L 856.9 75.6 L 975.7 76.5 L 1094.5 76.1 M 1087.8 75.7 L 1088.8 96 L 1087.6 116.3 M 1094.6 116 L 975.8 114.7 L 857 115.3 L 738.2 116 L 619.4 116.7 L 500.6 116.1 L 381.8 114.9 L 263 115.8 L 144.2 117.2 L 25.4 115.6 M 31.8 116.4 L 31.4 96 L 32.2 75.6" fill="none" stroke="#3a3a3a" stroke-width="1.8" stroke-linecap="round"/><path d="M 51.1 92.6 L 52.8 92.5 L 54.5 92.7 L 55.7 93.9 L 57.3 95.4 L 57.2 97.5 L 55.4 98.8 L 54.1 100.3 L 51.9 100.5 L 50.7 98.7 L 49.3 97.6 L 48.7 95.8 L 49.7 94.2 L 50.9 93 L 52.5 92.6" fill="none" stroke="#3a3a3a" stroke-width="1.4" stroke-linecap="round"/><path d="M 70.1 97.5 L 69.4 99.1 L 67.8 99.8 L 66 99.5 L 64 99.2 L 63.1 97.3 L 62.7 95.2 L 64.3 93.8 L 65.2 91.8 L 67.3 91.9 L 69 92.8 L 70.7 93.7 L 71.8 95.5 L 71.6 97.7 L 69.7 98.8" fill="none" stroke="#3a3a3a" stroke-width="1.4" stroke-linecap="round"/><path d="M 82.8 99.3 L 81.1 100.1 L 79.5 99.1 L 78.4 97.8 L 78.2 96.1 L 78.3 94.4 L 79.3 92.9 L 81 92.6 L 82.8 92.3 L 84.4 93.1 L 85.9 94.6 L 85.7 96.7 L 84.6 98.2 L 83.5 99.8 L 81.5 99.5" fill="none" stroke="#3a3a3a" stroke-width="1.4" stroke-linecap="round"/><path d="M 98.5 85.6 L 149.2 85.2 L 199.9 84.5 L 250.6 85.3 L 301.4 86.3 L 352.1 86.6 L 402.8 84.8 L 453.5 86 M 452.2 85.4 L 452.8 96 L 451.5 106.6 M 454 106.5 L 403.1 107.1 L 352.3 105.5 L 301.4 107.6 L 250.6 106.3 L 199.7 107.2 L 148.9 106.6 L 98 106.8 M 100.1 106.6 L 99.2 96 L 100.2 85.4" fill="none" stroke="#3a3a3a" stroke-width="1.8" stroke-linecap="round"/><text x="112.8" y="99.2" font-family="Comic Sans MS, Chalkboard SE, Bradley Hand, cursive" font-size="9" fill="#9a9a9a" text-anchor="start">vmspark.app/jobs/job_listings?status=open</text><path d="M 27.3 160 L 145.7 160.1 L 264.1 159 L 382.4 161.1 L 500.8 160.8 L 619.2 161.1 L 737.6 158.8 L 855.9 160.7 L 974.3 159.9 L 1092.7 160" fill="none" stroke="#3a3a3a" stroke-width="1.8" stroke-linecap="round"/><path d="M 57.7 136.5 L 62.4 136.7 L 67.1 137.2" fill="none" stroke="#e6e6e6" stroke-width="1.5" stroke-linecap="round"/><path d="M 51.9 126.7 L 62.4 127.7 L 72.9 126 M 72.3 126.2 L 72.2 136.8 L 73.2 147.4 M 73 146.8 L 62.4 147 L 51.8 147.5 M 52.1 147.4 L 51.6 136.8 L 51.6 126.2" fill="none" stroke="#3a3a3a" stroke-width="1.8" stroke-linecap="round"/><text x="80.8" y="133.6" font-family="Comic Sans MS, Chalkboard SE, Bradley Hand, cursive" font-size="9" fill="#9a9a9a" text-anchor="start">WORKSPACE</text><text x="80.8" y="147.2" font-family="Comic Sans MS, Chalkboard SE, Bradley Hand, cursive" font-size="11.2" fill="#3a3a3a" text-anchor="start" font-weight="bold">Cascade Staffing Group</text><path d="M 341.3 125.7 L 392.9 125.8 L 444.4 125 L 496 125.1 L 547.6 125.4 L 599.1 125.2 L 650.7 125.2 M 648.3 125.5 L 648.7 136.8 L 647.8 148.1 M 650.4 147.7 L 598.9 148.8 L 547.5 148.5 L 496 148.9 L 444.5 147.1 L 393.1 147 L 341.6 147.6 M 344.4 148.1 L 343.9 136.8 L 343.7 125.5" fill="none" stroke="#3a3a3a" stroke-width="1.8" stroke-linecap="round"/><text x="356.8" y="140.8" font-family="Comic Sans MS, Chalkboard SE, Bradley Hand, cursive" font-size="9" fill="#9a9a9a" text-anchor="start">Search jobs, candidates, facilities...</text><path d="M 621.3 137.2 L 627.2 135.7 L 633.1 137.1" fill="none" stroke="#e6e6e6" stroke-width="1.5" stroke-linecap="round"/><path d="M 614.2 130.6 L 627.2 131.5 L 640.2 130.9 M 639.8 130.3 L 640.9 136.8 L 640.3 143.3 M 640.2 143 L 627.2 144.4 L 614.2 143.5 M 614.6 143.3 L 615.4 136.8 L 614.5 130.3" fill="none" stroke="#3a3a3a" stroke-width="1.4" stroke-linecap="round"/><text x="627.2" y="140" font-family="Comic Sans MS, Chalkboard SE, Bradley Hand, cursive" font-size="9" fill="#9a9a9a" text-anchor="middle">CMD K</text><path d="M 799.3 125.9 L 847.8 124.5 L 896.2 125.7 L 944.7 125.9 M 944.4 125.5 L 943.9 136.8 L 944.4 148.1 M 944.8 147.6 L 896.3 146.7 L 847.7 149 L 799.2 147.9 M 799.8 148.1 L 800.5 136.8 L 799.8 125.5" fill="none" stroke="#3a3a3a" stroke-width="1.8" stroke-linecap="round"/><text x="872" y="140.8" font-family="Comic Sans MS, Chalkboard SE, Bradley Hand, cursive" font-size="9.6" fill="#3a3a3a" text-anchor="middle">Back to Owner View</text><path d="M 1047.9 125.1 L 1053.2 126.5 L 1057.9 128.9 L 1061 133.5 L 1060 138.8 L 1058.9 144.1 L 1054.1 146.6 L 1049.1 147.6 L 1044.2 146.2 L 1040.4 142.7 L 1038.6 137.9 L 1038.6 132.4 L 1042 128.1 L 1047 126.1 L 1052.1 126.4" fill="none" stroke="#3a3a3a" stroke-width="1.4" stroke-linecap="round"/><path d="M 223.9 157.5 L 223.2 213.6 L 224.4 269.7 L 224.7 325.8 L 224.1 381.9 L 224.6 438.1 L 222.9 494.2 L 222.8 550.3 L 224.8 606.4 L 223.8 662.5" fill="none" stroke="#3a3a3a" stroke-width="1.8" stroke-linecap="round"/><path d="M 51.1 177.8 L 89.5 176.5 L 128 177.5 L 166.5 177.7 L 204.9 177.6 M 203.8 177.4 L 203.3 191.2 L 204.1 205 M 205.1 204.7 L 166.5 203.9 L 128 205.8 L 89.5 204.4 L 50.9 204.4 M 51.9 205 L 51.8 191.2 L 52.1 177.4" fill="none" stroke="#3a3a3a" stroke-width="1.8" stroke-linecap="round" stroke-dasharray="7 5"/><text x="128" y="195.2" font-family="Comic Sans MS, Chalkboard SE, Bradley Hand, cursive" font-size="9" fill="#9a9a9a" text-anchor="middle">LOGO</text><path d="M 54.3 234 L 103.4 235.2 L 152.6 233.9 L 201.7 234.9" fill="none" stroke="#e6e6e6" stroke-width="1.5" stroke-linecap="round"/><path d="M 44.1 221 L 86.1 220.8 L 128 220.9 L 169.9 221.6 L 211.9 220.5 M 211.1 220.6 L 210.2 234.4 L 211.5 248.2 M 212.1 248.2 L 170.1 246.8 L 128 247.5 L 85.9 247.2 L 43.9 247.8 M 45 248.2 L 44.8 234.4 L 44.9 220.6" fill="none" stroke="#3a3a3a" stroke-width="1.4" stroke-linecap="round"/><rect x="45.8" y="221.8" width="1.2" height="25.2" rx="3" fill="#4a4a4a"/><path d="M 44.8 221.2 L 46.4 219.7 L 48 220.9 M 48.1 220.6 L 48.1 234.4 L 48.5 248.2 M 48 247.5 L 46.4 249.1 L 44.8 248 M 44.7 248.2 L 44.6 234.4 L 44.9 220.6" fill="none" stroke="#3a3a3a" stroke-width="1.4" stroke-linecap="round"/><path d="M 57.5 229.1 L 63.2 229.2 L 68.9 228.8 M 69.2 228.7 L 69 234.4 L 68.4 240.1 M 68.9 239.8 L 63.2 238.9 L 57.5 240.3 M 57.5 240.1 L 58 234.4 L 57.7 228.7" fill="none" stroke="#3a3a3a" stroke-width="1.8" stroke-linecap="round"/><text x="78.4" y="238.4" font-family="Comic Sans MS, Chalkboard SE, Bradley Hand, cursive" font-size="10.4" fill="#3a3a3a" text-anchor="start" font-weight="bold">Job Listings</text><path d="M 193.8 242.7 L 190.4 241 L 187.3 239.2 L 186.4 235.7 L 185.8 232 L 187.6 228.5 L 191.2 227.1 L 194.8 226.9 L 198.1 228.3 L 201.4 230.5 L 202.2 234.5 L 201.2 238.4 L 198.2 241.1 L 194.6 242.4 L 190.7 242.4" fill="none" stroke="#3a3a3a" stroke-width="1.4" stroke-linecap="round"/><text x="193.6" y="237.6" font-family="Comic Sans MS, Chalkboard SE, Bradley Hand, cursive" font-size="9" fill="#3a3a3a" text-anchor="middle">12</text><path d="M 57.5 260.5 L 63.2 261.9 L 68.9 260.6 M 69.2 260.7 L 67.9 266.4 L 69.3 272.1 M 68.9 272 L 63.2 272.8 L 57.5 272.3 M 57.6 272.1 L 56.9 266.4 L 57.4 260.7" fill="none" stroke="#3a3a3a" stroke-width="1.8" stroke-linecap="round"/><text x="78.4" y="270.4" font-family="Comic Sans MS, Chalkboard SE, Bradley Hand, cursive" font-size="10.4" fill="#3a3a3a" text-anchor="start">Manual Jobs</text><path d="M 57.5 289.1 L 63.2 289.3 L 68.9 289.7 M 68.8 289.5 L 68.5 295.2 L 69.2 300.9 M 68.9 300.9 L 63.2 301.5 L 57.5 301.1 M 57.8 300.9 L 58.3 295.2 L 57.3 289.5" fill="none" stroke="#3a3a3a" stroke-width="1.8" stroke-linecap="round"/><text x="78.4" y="299.2" font-family="Comic Sans MS, Chalkboard SE, Bradley Hand, cursive" font-size="10.4" fill="#3a3a3a" text-anchor="start">Direct Client Jobs</text><path d="M 57.5 318.3 L 63.2 317.7 L 68.9 318 M 69.1 318.3 L 70 324 L 68.9 329.7 M 68.9 330 L 63.2 329.4 L 57.5 329.9 M 57.6 329.7 L 57 324 L 57.5 318.3" fill="none" stroke="#3a3a3a" stroke-width="1.8" stroke-linecap="round"/><text x="78.4" y="328" font-family="Comic Sans MS, Chalkboard SE, Bradley Hand, cursive" font-size="10.4" fill="#3a3a3a" text-anchor="start">Candidates</text><path d="M 57.5 346.7 L 63.2 348.2 L 68.9 347.4 M 69.1 347.1 L 67.7 352.8 L 69.3 358.5 M 68.9 358.4 L 63.2 358.6 L 57.5 358.5 M 57.2 358.5 L 58.6 352.8 L 57.4 347.1" fill="none" stroke="#3a3a3a" stroke-width="1.8" stroke-linecap="round"/><text x="78.4" y="356.8" font-family="Comic Sans MS, Chalkboard SE, Bradley Hand, cursive" font-size="10.4" fill="#3a3a3a" text-anchor="start">Candidate Profiles</text><path d="M 57.5 376.1 L 63.2 376.3 L 68.9 376.4 M 68.3 375.9 L 67.6 381.6 L 68.6 387.3 M 68.9 387.1 L 63.2 387.7 L 57.5 387.6 M 57.7 387.3 L 57.9 381.6 L 57.7 375.9" fill="none" stroke="#3a3a3a" stroke-width="1.8" stroke-linecap="round"/><text x="78.4" y="385.6" font-family="Comic Sans MS, Chalkboard SE, Bradley Hand, cursive" font-size="10.4" fill="#9a9a9a" text-anchor="start">Applications &amp; Matches</text><text x="249.6" y="198.4" font-family="Comic Sans MS, Chalkboard SE, Bradley Hand, cursive" font-size="14.4" fill="#3a3a3a" text-anchor="start" font-weight="bold">Job Listings</text><text x="249.6" y="216" font-family="Comic Sans MS, Chalkboard SE, Bradley Hand, cursive" font-size="9.6" fill="#9a9a9a" text-anchor="start">Results 1–25 of 3,418 · Page 1 of 137</text><path d="M 671.6 182.5 L 712 183.3 L 752.4 182.7 M 751.7 182.2 L 751.5 194.4 L 752.1 206.6 M 752.3 205.9 L 712 205.5 L 671.7 206.1 M 672.4 206.5 L 671.7 194.4 L 671.7 182.3" fill="none" stroke="#3a3a3a" stroke-width="1.8" stroke-linecap="round"/><text x="712" y="198.4" font-family="Comic Sans MS, Chalkboard SE, Bradley Hand, cursive" font-size="9" fill="#3a3a3a" text-anchor="middle">Save Page</text><path d="M 759.5 182.2 L 791.8 183 L 824.2 181.8 L 856.5 182.4 M 855.7 182.2 L 854.7 194.4 L 855.7 206.6 M 856.9 206.9 L 824.3 207.5 L 791.7 207.1 L 759.1 206.7 M 759.8 206.5 L 759.7 194.4 L 760 182.3" fill="none" stroke="#3a3a3a" stroke-width="1.8" stroke-linecap="round"/><text x="808" y="198.4" font-family="Comic Sans MS, Chalkboard SE, Bradley Hand, cursive" font-size="9" fill="#3a3a3a" text-anchor="middle">Saved Pages</text><path d="M 863.6 182.7 L 895.9 183.2 L 928.1 181.4 L 960.4 182.6 M 960.2 182.2 L 958.7 194.4 L 959.6 206.6 M 960.8 206.2 L 928.3 207.1 L 895.7 205.9 L 863.2 206.7 M 864 206.6 L 864.1 194.4 L 864.1 182.2" fill="none" stroke="#3a3a3a" stroke-width="1.8" stroke-linecap="round"/><text x="912" y="198.4" font-family="Comic Sans MS, Chalkboard SE, Bradley Hand, cursive" font-size="9" fill="#3a3a3a" text-anchor="middle">Export Results</text><rect x="969" y="183.4" width="94" height="22" rx="3" fill="#4a4a4a"/><path d="M 967.6 182.5 L 999.9 181.9 L 1032.1 181.6 L 1064.4 182.3 M 1063.8 182.2 L 1063.8 194.4 L 1064.2 206.6 M 1064.9 206.9 L 1032.3 207.5 L 999.7 205.4 L 967.1 206 M 967.7 206.6 L 969 194.4 L 967.7 182.2" fill="none" stroke="#3a3a3a" stroke-width="1.8" stroke-linecap="round"/><text x="1016" y="198.4" font-family="Comic Sans MS, Chalkboard SE, Bradley Hand, cursive" font-size="9" fill="#ffffff" text-anchor="middle" font-weight="bold">Reprocess All</text><path d="M 691.9 220.9 L 742.3 221.8 L 792.8 222.1 L 843.3 220.7 L 893.7 220.6" fill="none" stroke="#8e8e8e" stroke-width="4" stroke-linecap="round"/><rect x="693.8" y="218.6" width="134" height="4.4" rx="3" fill="#4a4a4a"/><path d="M 692 218 L 737.9 217.6 L 783.7 216.7 L 829.6 217.2 M 829 217.5 L 828.5 220.8 L 829 224.1 M 829.5 224.3 L 783.7 224 L 737.9 222.8 L 692.1 224.5 M 693 224 L 694 220.8 L 693.1 217.6" fill="none" stroke="#3a3a3a" stroke-width="1.4" stroke-linecap="round"/><text x="1064" y="224.8" font-family="Comic Sans MS, Chalkboard SE, Bradley Hand, cursive" font-size="9" fill="#9a9a9a" text-anchor="end">68% complete · 2,324 queued</text><text x="249.6" y="252.8" font-family="Comic Sans MS, Chalkboard SE, Bradley Hand, cursive" font-size="10.4" fill="#3a3a3a" text-anchor="start" font-weight="bold">All</text><path d="M 277.3 249.9 L 292.8 249.9 L 308.3 249.3" fill="none" stroke="#e6e6e6" stroke-width="1.5" stroke-linecap="round"/><path d="M 271.8 241.6 L 292.8 241.8 L 313.8 241.8 M 313.7 241.5 L 312.8 249.6 L 313.3 257.7 M 313.9 257.6 L 292.8 257.9 L 271.7 257.1 M 272 257.7 L 271.6 249.6 L 272.4 241.5" fill="none" stroke="#3a3a3a" stroke-width="1.8" stroke-linecap="round"/><text x="292.8" y="252.8" font-family="Comic Sans MS, Chalkboard SE, Bradley Hand, cursive" font-size="9" fill="#3a3a3a" text-anchor="middle">3,418</text><text x="331.2" y="252.8" font-family="Comic Sans MS, Chalkboard SE, Bradley Hand, cursive" font-size="10.4" fill="#9a9a9a" text-anchor="start">Processed</text><path d="M 398.6 249.1 L 409.6 250.1 L 420.6 249.6" fill="none" stroke="#e6e6e6" stroke-width="1.5" stroke-linecap="round"/><path d="M 388.5 242 L 409.6 241 L 430.7 241.6 M 430.4 241.4 L 430.1 249.6 L 430.6 257.8 M 430.7 257.5 L 409.6 257.1 L 388.5 257.3 M 388.8 257.7 L 387.6 249.6 L 388.9 241.5" fill="none" stroke="#3a3a3a" stroke-width="1.4" stroke-linecap="round"/><text x="409.6" y="252.8" font-family="Comic Sans MS, Chalkboard SE, Bradley Hand, cursive" font-size="9" fill="#3a3a3a" text-anchor="middle">3,102</text><text x="448" y="252.8" font-family="Comic Sans MS, Chalkboard SE, Bradley Hand, cursive" font-size="10.4" fill="#9a9a9a" text-anchor="start">Failed</text><path d="M 484.5 241.7 L 499.2 242.4 L 513.9 241.3 M 513.6 241.4 L 514.6 249.6 L 514 257.8 M 513.7 257.6 L 499.2 256.6 L 484.7 257.5 M 484.3 257.7 L 485.6 249.6 L 485.1 241.5" fill="none" stroke="#3a3a3a" stroke-width="1.8" stroke-linecap="round"/><text x="499.2" y="252.8" font-family="Comic Sans MS, Chalkboard SE, Bradley Hand, cursive" font-size="9" fill="#3a3a3a" text-anchor="middle" font-weight="bold">12</text><text x="528" y="252.8" font-family="Comic Sans MS, Chalkboard SE, Bradley Hand, cursive" font-size="10.4" fill="#9a9a9a" text-anchor="start">Skipped</text><path d="M 577.7 250.1 L 589.6 249.6 L 601.5 249.1" fill="none" stroke="#e6e6e6" stroke-width="1.5" stroke-linecap="round"/><path d="M 572.6 241.7 L 589.6 241.1 L 606.6 241.7 M 606.5 241.5 L 606.3 249.6 L 606.7 257.7 M 606.7 257.5 L 589.6 256.7 L 572.5 257.7 M 572.4 257.7 L 573.4 249.6 L 573.3 241.5" fill="none" stroke="#3a3a3a" stroke-width="1.4" stroke-linecap="round"/><text x="589.6" y="252.8" font-family="Comic Sans MS, Chalkboard SE, Bradley Hand, cursive" font-size="9" fill="#3a3a3a" text-anchor="middle">304</text><path d="M 245.2 267.4 L 336.7 267 L 428.1 265.9 L 519.6 266.6 L 611.1 266.2 L 702.5 266.2 L 794 266.1 L 885.5 266.3 L 976.9 267.9 L 1068.4 267.6" fill="none" stroke="#3a3a3a" stroke-width="1.4" stroke-linecap="round"/><path d="M 249.3 267.6 L 281.6 267.9 L 313.9 267.2" fill="none" stroke="#3a3a3a" stroke-width="1.8" stroke-linecap="round"/><rect x="249.6" y="280" width="814.4" height="312" fill="#ffffff"/><path d="M 242.3 280.5 L 334.4 281.1 L 426.5 280.5 L 518.6 279.9 L 610.7 281.2 L 702.9 280.7 L 795 279.2 L 887.1 280.2 L 979.2 281.2 L 1071.3 279.7 M 1064.4 278.3 L 1064.8 330.8 L 1063.8 383.4 L 1063.2 436 L 1063.8 488.6 L 1063.5 541.2 L 1064.3 593.7 M 1070.9 591.8 L 978.9 593.2 L 886.8 593.3 L 794.8 592.4 L 702.8 592.3 L 610.8 591.2 L 518.8 590.8 L 426.8 591.9 L 334.7 590.9 L 242.7 592 M 249.3 594.7 L 248.7 541.8 L 248.9 488.9 L 248.7 436 L 250.1 383.1 L 249.4 330.2 L 250.1 277.3" fill="none" stroke="#3a3a3a" stroke-width="1.8" stroke-linecap="round"/><path d="M 255.8 292.3 L 344.9 292.3 L 434 291.7 L 523.1 294 L 612.2 291.8 L 701.4 293.6 L 790.5 293.1 L 879.6 293.3 L 968.7 292.7 L 1057.8 292.8" fill="none" stroke="#e6e6e6" stroke-width="1.5" stroke-linecap="round"/><path d="M 244.6 279.6 L 336.2 280 L 427.8 280.6 L 519.4 280.8 L 611 278.8 L 702.6 280.6 L 794.2 280.8 L 885.8 280.7 L 977.4 279.9 L 1069 279.9 M 1064.4 279.9 L 1063.7 292.8 L 1063.6 305.7 M 1070 305.5 L 978.2 305 L 886.3 305.5 L 794.5 306.2 L 702.7 305.3 L 610.9 306.2 L 519.1 306.8 L 427.3 305.1 L 335.4 305.3 L 243.6 305.9 M 249.8 305.8 L 250 292.8 L 250.1 279.8" fill="none" stroke="#3a3a3a" stroke-width="1.4" stroke-linecap="round"/><path d="M 245.7 306 L 337.1 306.9 L 428.4 305.3 L 519.8 306.2 L 611.1 304.4 L 702.5 306.6 L 793.8 304.6 L 885.2 305.3 L 976.5 306.2 L 1067.9 305.8" fill="none" stroke="#3a3a3a" stroke-width="1.4" stroke-linecap="round"/><path d="M 242.6 336.4 L 334.6 335.9 L 426.7 335.8 L 518.7 337 L 610.8 336.3 L 702.8 335.5 L 794.9 337.1 L 886.9 334.9 L 979 335.1 L 1071 336.4" fill="none" stroke="#3a3a3a" stroke-width="1.8" stroke-linecap="round"/><path d="M 260.7 286.6 L 266.4 287.6 L 272.1 286.1 M 272.1 286.3 L 273.1 292 L 272.5 297.7 M 272.1 297.8 L 266.4 298.7 L 260.7 297.6 M 261.1 297.7 L 259.9 292 L 260.8 286.3" fill="none" stroke="#3a3a3a" stroke-width="1.8" stroke-linecap="round"/><text x="286.4" y="296" font-family="Comic Sans MS, Chalkboard SE, Bradley Hand, cursive" font-size="9" fill="#9a9a9a" text-anchor="start">JOB ID</text><text x="350.4" y="296" font-family="Comic Sans MS, Chalkboard SE, Bradley Hand, cursive" font-size="9" fill="#9a9a9a" text-anchor="start">POSITION TITLE</text><text x="470.4" y="296" font-family="Comic Sans MS, Chalkboard SE, Bradley Hand, cursive" font-size="9" fill="#9a9a9a" text-anchor="start">FACILITY</text><text x="596.8" y="296" font-family="Comic Sans MS, Chalkboard SE, Bradley Hand, cursive" font-size="9" fill="#9a9a9a" text-anchor="start">PROFESSION</text><text x="689.6" y="296" font-family="Comic Sans MS, Chalkboard SE, Bradley Hand, cursive" font-size="9" fill="#9a9a9a" text-anchor="start">SPECIALTY</text><text x="755.2" y="296" font-family="Comic Sans MS, Chalkboard SE, Bradley Hand, cursive" font-size="9" fill="#3a3a3a" text-anchor="start" font-weight="bold">START</text><text x="787.2" y="296" font-family="Comic Sans MS, Chalkboard SE, Bradley Hand, cursive" font-size="9" fill="#3a3a3a" text-anchor="start" font-weight="bold">^</text><text x="822.4" y="296" font-family="Comic Sans MS, Chalkboard SE, Bradley Hand, cursive" font-size="9" fill="#9a9a9a" text-anchor="start">SHIFT</text><text x="870.4" y="296" font-family="Comic Sans MS, Chalkboard SE, Bradley Hand, cursive" font-size="9" fill="#9a9a9a" text-anchor="start">BILL RATE</text><text x="934.4" y="296" font-family="Comic Sans MS, Chalkboard SE, Bradley Hand, cursive" font-size="9" fill="#9a9a9a" text-anchor="start">STATUS</text><text x="993.6" y="296" font-family="Comic Sans MS, Chalkboard SE, Bradley Hand, cursive" font-size="9" fill="#9a9a9a" text-anchor="start">VMS SOURCE</text><path d="M 285.9 311.4 L 313.6 311.7 L 341.3 311.1 M 340.8 311.1 L 340.9 320.8 L 341.2 330.5 M 341.1 330.8 L 313.6 329.7 L 286.1 330.6 M 286.5 330.5 L 285.3 320.8 L 286.4 311.1" fill="none" stroke="#3a3a3a" stroke-width="1.4" stroke-linecap="round"/><text x="292.8" y="324" font-family="Comic Sans MS, Chalkboard SE, Bradley Hand, cursive" font-size="9" fill="#9a9a9a" text-anchor="start">REQ-</text><path d="M 349.4 310.9 L 386.9 312.4 L 424.3 310.7 L 461.8 311.6 M 460.7 311.1 L 459.6 320.8 L 460.3 330.5 M 461.7 330.4 L 424.3 330.2 L 386.9 330.3 L 349.5 330.7 M 350.5 330.5 L 350.7 320.8 L 349.9 311.1" fill="none" stroke="#3a3a3a" stroke-width="1.4" stroke-linecap="round"/><text x="356.8" y="324" font-family="Comic Sans MS, Chalkboard SE, Bradley Hand, cursive" font-size="9" fill="#9a9a9a" text-anchor="start">contains...</text><path d="M 469.8 310.8 L 509.1 310.1 L 548.5 310.3 L 587.8 311.4 M 587 311.1 L 588.3 320.8 L 587.1 330.5 M 588 330.8 L 548.5 330.6 L 509.1 329.5 L 469.6 330.6 M 470.7 330.5 L 471.3 320.8 L 470.9 311.1" fill="none" stroke="#3a3a3a" stroke-width="1.8" stroke-linecap="round"/><text x="476.8" y="324" font-family="Comic Sans MS, Chalkboard SE, Bradley Hand, cursive" font-size="9" fill="#3a3a3a" text-anchor="start">Mercy</text><path d="M 596.2 311 L 638.4 311.2 L 680.6 310.9 M 680.2 311.1 L 679.8 320.8 L 680 330.5 M 680.7 330.2 L 638.4 329.2 L 596.1 330.2 M 596.3 330.5 L 595.7 320.8 L 597 311.1" fill="none" stroke="#3a3a3a" stroke-width="1.4" stroke-linecap="round"/><path d="M 689.3 311.6 L 717.6 310.6 L 745.9 311.4 M 745.6 311.1 L 745.7 320.8 L 745.5 330.5 M 746 330.5 L 717.6 330.8 L 689.2 330.2 M 689.6 330.6 L 688.6 320.8 L 689.6 311" fill="none" stroke="#3a3a3a" stroke-width="1.4" stroke-linecap="round"/><path d="M 754.8 311.1 L 784 311.4 L 813.2 311.7 M 813.2 311.1 L 814 320.8 L 812.8 330.5 M 813.1 330.2 L 784 330.3 L 754.9 330 M 755 330.6 L 755.1 320.8 L 754.7 311" fill="none" stroke="#3a3a3a" stroke-width="1.4" stroke-linecap="round"/><path d="M 822.1 311.1 L 841.6 311 L 861.1 311.4 M 860.9 311 L 861.1 320.8 L 860.6 330.6 M 861.1 330 L 841.6 329.8 L 822.1 330.6 M 822.2 330.5 L 822.7 320.8 L 821.9 311.1" fill="none" stroke="#3a3a3a" stroke-width="1.4" stroke-linecap="round"/><path d="M 870.1 311.1 L 897.6 312.4 L 925.1 311.6 M 925 311.1 L 925.8 320.8 L 924.5 330.5 M 925.3 330.6 L 897.6 331.2 L 869.9 330.9 M 870.3 330.5 L 871.6 320.8 L 870.3 311.1" fill="none" stroke="#3a3a3a" stroke-width="1.4" stroke-linecap="round"/><path d="M 934 311.1 L 959.2 312.2 L 984.4 311.6 M 984.4 311.1 L 984 320.8 L 984 330.5 M 984.5 330.4 L 959.2 330.9 L 933.9 330.3 M 934.7 330.5 L 933.8 320.8 L 933.9 311.1" fill="none" stroke="#3a3a3a" stroke-width="1.8" stroke-linecap="round"/><text x="940.8" y="324" font-family="Comic Sans MS, Chalkboard SE, Bradley Hand, cursive" font-size="9" fill="#3a3a3a" text-anchor="start">Open</text><text x="974.4" y="324" font-family="Comic Sans MS, Chalkboard SE, Bradley Hand, cursive" font-size="9" fill="#9a9a9a" text-anchor="start">v</text><path d="M 993.1 310.8 L 1026.4 310.1 L 1059.7 310.8 M 1059.6 311.1 L 1059.2 320.8 L 1059.3 330.5 M 1059.5 330.9 L 1026.4 329.7 L 993.3 329.9 M 993.6 330.5 L 994.2 320.8 L 993.8 311.1" fill="none" stroke="#3a3a3a" stroke-width="1.4" stroke-linecap="round"/><path d="M 282 277.5 L 281 330.4 L 280.3 383.2 L 281.1 436 L 282.6 488.8 L 281.5 541.6 L 281.8 594.5" fill="none" stroke="#3a3a3a" stroke-width="1.4" stroke-linecap="round"/><path d="M 345.9 277.5 L 345 330.4 L 346.4 383.2 L 345.8 436 L 346.4 488.8 L 345 541.6 L 345.2 594.5" fill="none" stroke="#3a3a3a" stroke-width="1.4" stroke-linecap="round"/><path d="M 466 278.5 L 465 331 L 465.6 383.5 L 466.2 436 L 465.4 488.5 L 464.4 541 L 465.5 593.5" fill="none" stroke="#3a3a3a" stroke-width="1.4" stroke-linecap="round"/><path d="M 591.9 278.5 L 591 331 L 592.3 383.5 L 592.6 436 L 591.7 488.5 L 591.7 541 L 592.5 593.5" fill="none" stroke="#3a3a3a" stroke-width="1.4" stroke-linecap="round"/><path d="M 684.6 278.6 L 685.7 331.1 L 684 383.5 L 683.9 436 L 685.3 488.5 L 685.4 540.9 L 684.7 593.4" fill="none" stroke="#3a3a3a" stroke-width="1.4" stroke-linecap="round"/><path d="M 750 277.9 L 750.5 330.6 L 750.3 383.3 L 750.2 436 L 750.3 488.7 L 750.7 541.4 L 750.8 594.1" fill="none" stroke="#3a3a3a" stroke-width="1.4" stroke-linecap="round"/><path d="M 818 277.3 L 818.6 330.2 L 817.9 383.1 L 818.7 436 L 817.4 488.9 L 817.2 541.8 L 817.9 594.7" fill="none" stroke="#3a3a3a" stroke-width="1.4" stroke-linecap="round"/><path d="M 866 278.7 L 865.3 331.2 L 865 383.6 L 864.7 436 L 865.3 488.4 L 866.2 540.8 L 865.5 593.3" fill="none" stroke="#3a3a3a" stroke-width="1.4" stroke-linecap="round"/><path d="M 929.9 277.2 L 928.8 330.1 L 930.1 383.1 L 930.1 436 L 928.5 488.9 L 929.1 541.9 L 929.2 594.8" fill="none" stroke="#3a3a3a" stroke-width="1.4" stroke-linecap="round"/><path d="M 988.7 277 L 987.9 330 L 987.6 383 L 989.6 436 L 988.6 489 L 989.4 542 L 989.1 595" fill="none" stroke="#3a3a3a" stroke-width="1.4" stroke-linecap="round"/><path d="M 260.7 346.1 L 266.4 346.1 L 272.1 346.1 M 272.1 346.3 L 271.5 352 L 272.3 357.7 M 272.1 357.8 L 266.4 358.7 L 260.7 357.2 M 260.9 357.7 L 261.6 352 L 261.2 346.3" fill="none" stroke="#3a3a3a" stroke-width="1.8" stroke-linecap="round"/><text x="286.4" y="356" font-family="Comic Sans MS, Chalkboard SE, Bradley Hand, cursive" font-size="9" fill="#3a3a3a" text-anchor="start">REQ-88214</text><text x="350.4" y="356" font-family="Comic Sans MS, Chalkboard SE, Bradley Hand, cursive" font-size="9" fill="#3a3a3a" text-anchor="start">Registered Nurse – ICU</text><text x="470.4" y="356" font-family="Comic Sans MS, Chalkboard SE, Bradley Hand, cursive" font-size="9" fill="#3a3a3a" text-anchor="start">Mercy General – Sac</text><text x="596.8" y="356" font-family="Comic Sans MS, Chalkboard SE, Bradley Hand, cursive" font-size="9" fill="#3a3a3a" text-anchor="start">Registered Nurse</text><text x="689.6" y="356" font-family="Comic Sans MS, Chalkboard SE, Bradley Hand, cursive" font-size="9" fill="#3a3a3a" text-anchor="start">ICU</text><text x="755.2" y="356" font-family="Comic Sans MS, Chalkboard SE, Bradley Hand, cursive" font-size="9" fill="#3a3a3a" text-anchor="start">08/04/2026</text><text x="822.4" y="356" font-family="Comic Sans MS, Chalkboard SE, Bradley Hand, cursive" font-size="9" fill="#3a3a3a" text-anchor="start">Nights</text><text x="870.4" y="356" font-family="Comic Sans MS, Chalkboard SE, Bradley Hand, cursive" font-size="9" fill="#3a3a3a" text-anchor="start">$64.50/hr</text><path d="M 945.7 352.5 L 956.8 351 L 967.9 352.2" fill="none" stroke="#e6e6e6" stroke-width="1.5" stroke-linecap="round"/><path d="M 935.8 343.7 L 956.8 343.2 L 977.8 344.2 M 977.6 343.9 L 977.8 352 L 977.1 360.1 M 977.8 360 L 956.8 359.6 L 935.8 359.7 M 935.9 360.2 L 935.4 352 L 936.3 343.8" fill="none" stroke="#3a3a3a" stroke-width="1.4" stroke-linecap="round"/><text x="956.8" y="355.2" font-family="Comic Sans MS, Chalkboard SE, Bradley Hand, cursive" font-size="9" fill="#3a3a3a" text-anchor="middle">Open</text><text x="993.6" y="356" font-family="Comic Sans MS, Chalkboard SE, Bradley Hand, cursive" font-size="9" fill="#3a3a3a" text-anchor="start">AMN</text><path d="M 242.2 368.5 L 334.3 367.9 L 426.5 367.4 L 518.6 367.7 L 610.7 366.8 L 702.9 368.2 L 795 367.6 L 887.1 367 L 979.3 368.4 L 1071.4 368" fill="none" stroke="#3a3a3a" stroke-width="1.4" stroke-linecap="round"/><rect x="261.8" y="379.4" width="9.2" height="9.2" rx="3" fill="#4a4a4a"/><path d="M 260.7 378 L 266.4 378.7 L 272.1 378.2 M 271.6 378.3 L 272.4 384 L 271.6 389.7 M 272.1 389.2 L 266.4 389.9 L 260.7 389.2 M 261.3 389.6 L 260.6 384 L 260.9 378.4" fill="none" stroke="#3a3a3a" stroke-width="1.8" stroke-linecap="round"/><text x="286.4" y="388" font-family="Comic Sans MS, Chalkboard SE, Bradley Hand, cursive" font-size="9" fill="#3a3a3a" text-anchor="start">REQ-88217</text><text x="350.4" y="388" font-family="Comic Sans MS, Chalkboard SE, Bradley Hand, cursive" font-size="9" fill="#3a3a3a" text-anchor="start">Travel RN – Med/Surg</text><text x="470.4" y="388" font-family="Comic Sans MS, Chalkboard SE, Bradley Hand, cursive" font-size="9" fill="#3a3a3a" text-anchor="start">St. Luke's Medical Ctr</text><text x="596.8" y="388" font-family="Comic Sans MS, Chalkboard SE, Bradley Hand, cursive" font-size="9" fill="#3a3a3a" text-anchor="start">Registered Nurse</text><text x="689.6" y="388" font-family="Comic Sans MS, Chalkboard SE, Bradley Hand, cursive" font-size="9" fill="#3a3a3a" text-anchor="start">Med/Surg</text><text x="755.2" y="388" font-family="Comic Sans MS, Chalkboard SE, Bradley Hand, cursive" font-size="9" fill="#3a3a3a" text-anchor="start">08/11/2026</text><text x="822.4" y="388" font-family="Comic Sans MS, Chalkboard SE, Bradley Hand, cursive" font-size="9" fill="#3a3a3a" text-anchor="start">Days</text><text x="870.4" y="388" font-family="Comic Sans MS, Chalkboard SE, Bradley Hand, cursive" font-size="9" fill="#3a3a3a" text-anchor="start">$52.75/hr</text><path d="M 945.3 383.7 L 956.8 383.4 L 968.3 384.5" fill="none" stroke="#e6e6e6" stroke-width="1.5" stroke-linecap="round"/><path d="M 935.8 376 L 956.8 374.8 L 977.8 375.7 M 978.1 375.9 L 978.8 384 L 977.1 392.1 M 977.9 392.1 L 956.8 390.9 L 935.7 392 M 936.5 392.1 L 936.3 384 L 936.4 375.9" fill="none" stroke="#3a3a3a" stroke-width="1.4" stroke-linecap="round"/><text x="956.8" y="387.2" font-family="Comic Sans MS, Chalkboard SE, Bradley Hand, cursive" font-size="9" fill="#3a3a3a" text-anchor="middle">Open</text><text x="993.6" y="388" font-family="Comic Sans MS, Chalkboard SE, Bradley Hand, cursive" font-size="9" fill="#3a3a3a" text-anchor="start">Aya</text><path d="M 242.4 400.1 L 334.5 399.4 L 426.6 399.6 L 518.7 399.3 L 610.8 400.5 L 702.8 401 L 794.9 399.6 L 887 399.1 L 979.1 398.9 L 1071.2 399.9" fill="none" stroke="#3a3a3a" stroke-width="1.4" stroke-linecap="round"/><path d="M 260.7 410.4 L 266.4 411 L 272.1 410.2 M 272.3 410.3 L 272.4 416 L 272.2 421.7 M 272.1 421.4 L 266.4 422.6 L 260.7 421.5 M 261.3 421.7 L 259.8 416 L 261.2 410.3" fill="none" stroke="#3a3a3a" stroke-width="1.8" stroke-linecap="round"/><text x="286.4" y="420" font-family="Comic Sans MS, Chalkboard SE, Bradley Hand, cursive" font-size="9" fill="#3a3a3a" text-anchor="start">REQ-88231</text><text x="350.4" y="420" font-family="Comic Sans MS, Chalkboard SE, Bradley Hand, cursive" font-size="9" fill="#3a3a3a" text-anchor="start">Surgical Technologist</text><text x="470.4" y="420" font-family="Comic Sans MS, Chalkboard SE, Bradley Hand, cursive" font-size="9" fill="#3a3a3a" text-anchor="start">Baptist Health Dtwn</text><text x="596.8" y="420" font-family="Comic Sans MS, Chalkboard SE, Bradley Hand, cursive" font-size="9" fill="#3a3a3a" text-anchor="start">Allied</text><text x="689.6" y="420" font-family="Comic Sans MS, Chalkboard SE, Bradley Hand, cursive" font-size="9" fill="#3a3a3a" text-anchor="start">OR</text><text x="755.2" y="420" font-family="Comic Sans MS, Chalkboard SE, Bradley Hand, cursive" font-size="9" fill="#3a3a3a" text-anchor="start">08/18/2026</text><text x="822.4" y="420" font-family="Comic Sans MS, Chalkboard SE, Bradley Hand, cursive" font-size="9" fill="#3a3a3a" text-anchor="start">Days</text><text x="870.4" y="420" font-family="Comic Sans MS, Chalkboard SE, Bradley Hand, cursive" font-size="9" fill="#3a3a3a" text-anchor="start">$41.00/hr</text><path d="M 946.8 415.6 L 956.8 415.8 L 966.8 415.9" fill="none" stroke="#e6e6e6" stroke-width="1.5" stroke-linecap="round"/><path d="M 935.7 407.7 L 956.8 409.1 L 977.9 408.1 M 977.7 407.9 L 976.6 416 L 977.5 424.1 M 977.8 424 L 956.8 424.4 L 935.8 424.5 M 936.2 424.1 L 936.3 416 L 936.1 407.9" fill="none" stroke="#3a3a3a" stroke-width="1.4" stroke-linecap="round"/><text x="956.8" y="419.2" font-family="Comic Sans MS, Chalkboard SE, Bradley Hand, cursive" font-size="9" fill="#3a3a3a" text-anchor="middle">Open</text><text x="993.6" y="420" font-family="Comic Sans MS, Chalkboard SE, Bradley Hand, cursive" font-size="9" fill="#3a3a3a" text-anchor="start">HealthTrust</text><path d="M 244.1 432.2 L 335.8 431 L 427.5 431.1 L 519.2 432 L 610.9 432.2 L 702.7 432.5 L 794.4 431.7 L 886.1 432.9 L 977.8 431.1 L 1069.5 431.8" fill="none" stroke="#3a3a3a" stroke-width="1.4" stroke-linecap="round"/><path d="M 244.9 431.6 L 336.5 433.3 L 428 431.1 L 519.5 431.1 L 611 432.1 L 702.6 431.2 L 794.1 433 L 885.6 432.1 L 977.1 432.4 L 1068.7 432.2 M 1062.7 431.7 L 1063.1 448 L 1063.5 464.3 M 1069.1 463.6 L 977.5 464.8 L 885.8 464.9 L 794.2 463.5 L 702.6 463.8 L 611 463.4 L 519.4 464.1 L 427.8 463 L 336.1 463.6 L 244.5 464.4 M 250.5 464.2 L 249.2 448 L 250.4 431.8" fill="none" stroke="#3a3a3a" stroke-width="1.8" stroke-linecap="round"/><path d="M 260.7 442.4 L 266.4 442.4 L 272.1 442.9 M 271.9 442.3 L 273.2 448 L 272.3 453.7 M 272.1 453.5 L 266.4 454.2 L 260.7 453.2 M 261.3 453.7 L 261.1 448 L 260.5 442.3" fill="none" stroke="#3a3a3a" stroke-width="1.8" stroke-linecap="round"/><text x="286.4" y="452" font-family="Comic Sans MS, Chalkboard SE, Bradley Hand, cursive" font-size="9" fill="#3a3a3a" text-anchor="start">REQ-88240</text><text x="350.4" y="452" font-family="Comic Sans MS, Chalkboard SE, Bradley Hand, cursive" font-size="9" fill="#3a3a3a" text-anchor="start">Registered Nurse – Tele</text><text x="470.4" y="452" font-family="Comic Sans MS, Chalkboard SE, Bradley Hand, cursive" font-size="9" fill="#3a3a3a" text-anchor="start" font-weight="bold">Mercy Genl - Sac</text><text x="596.8" y="452" font-family="Comic Sans MS, Chalkboard SE, Bradley Hand, cursive" font-size="9" fill="#3a3a3a" text-anchor="start">Registered Nurse</text><text x="689.6" y="452" font-family="Comic Sans MS, Chalkboard SE, Bradley Hand, cursive" font-size="9" fill="#3a3a3a" text-anchor="start">Telemetry</text><text x="755.2" y="452" font-family="Comic Sans MS, Chalkboard SE, Bradley Hand, cursive" font-size="9" fill="#3a3a3a" text-anchor="start">09/01/2026</text><text x="822.4" y="452" font-family="Comic Sans MS, Chalkboard SE, Bradley Hand, cursive" font-size="9" fill="#3a3a3a" text-anchor="start">Nights</text><text x="870.4" y="452" font-family="Comic Sans MS, Chalkboard SE, Bradley Hand, cursive" font-size="9" fill="#3a3a3a" text-anchor="start">$61.25/hr</text><path d="M 934.1 439.9 L 958.4 440.8 L 982.7 440.2 M 982.5 439.9 L 982.8 448 L 981.9 456.1 M 982.7 456.2 L 958.4 456.3 L 934.1 456.5 M 934.8 456.1 L 935.4 448 L 934.3 439.9" fill="none" stroke="#3a3a3a" stroke-width="1.8" stroke-linecap="round"/><text x="958.4" y="451.2" font-family="Comic Sans MS, Chalkboard SE, Bradley Hand, cursive" font-size="9" fill="#3a3a3a" text-anchor="middle" font-weight="bold">FAILED</text><text x="993.6" y="452" font-family="Comic Sans MS, Chalkboard SE, Bradley Hand, cursive" font-size="9" fill="#3a3a3a" text-anchor="start">Medefis</text><path d="M 260.7 474.1 L 266.4 474.7 L 272.1 474.8 M 272.3 474.3 L 272.3 480 L 272.2 485.7 M 272.1 486 L 266.4 486.4 L 260.7 485.3 M 260.5 485.7 L 261 480 L 261.3 474.3" fill="none" stroke="#3a3a3a" stroke-width="1.8" stroke-linecap="round"/><text x="286.4" y="484" font-family="Comic Sans MS, Chalkboard SE, Bradley Hand, cursive" font-size="9" fill="#3a3a3a" text-anchor="start">REQ-88244</text><text x="350.4" y="484" font-family="Comic Sans MS, Chalkboard SE, Bradley Hand, cursive" font-size="9" fill="#3a3a3a" text-anchor="start">Respiratory Therapist</text><text x="470.4" y="484" font-family="Comic Sans MS, Chalkboard SE, Bradley Hand, cursive" font-size="9" fill="#3a3a3a" text-anchor="start">Providence Regional</text><text x="596.8" y="484" font-family="Comic Sans MS, Chalkboard SE, Bradley Hand, cursive" font-size="9" fill="#3a3a3a" text-anchor="start">Allied</text><text x="689.6" y="484" font-family="Comic Sans MS, Chalkboard SE, Bradley Hand, cursive" font-size="9" fill="#3a3a3a" text-anchor="start">Respiratory</text><text x="755.2" y="484" font-family="Comic Sans MS, Chalkboard SE, Bradley Hand, cursive" font-size="9" fill="#3a3a3a" text-anchor="start">08/25/2026</text><text x="822.4" y="484" font-family="Comic Sans MS, Chalkboard SE, Bradley Hand, cursive" font-size="9" fill="#3a3a3a" text-anchor="start">Nights</text><text x="870.4" y="484" font-family="Comic Sans MS, Chalkboard SE, Bradley Hand, cursive" font-size="9" fill="#3a3a3a" text-anchor="start">$46.80/hr</text><path d="M 940.8 480 L 956.8 480 L 972.8 479.7" fill="none" stroke="#e6e6e6" stroke-width="1.5" stroke-linecap="round"/><path d="M 935.6 472.2 L 956.8 472.6 L 978 471.6 M 977.7 471.9 L 977.5 480 L 977.8 488.1 M 978 488.4 L 956.8 489.1 L 935.6 488.1 M 936.1 488.2 L 937.3 480 L 936 471.8" fill="none" stroke="#3a3a3a" stroke-width="1.4" stroke-linecap="round"/><text x="956.8" y="483.2" font-family="Comic Sans MS, Chalkboard SE, Bradley Hand, cursive" font-size="9" fill="#3a3a3a" text-anchor="middle">Open</text><text x="993.6" y="484" font-family="Comic Sans MS, Chalkboard SE, Bradley Hand, cursive" font-size="9" fill="#3a3a3a" text-anchor="start">AMN</text><path d="M 241.8 496 L 334.1 496.2 L 426.3 495.4 L 518.5 496.5 L 610.7 495.1 L 702.9 495.9 L 795.1 495.2 L 887.3 496.8 L 979.5 495.9 L 1071.8 496" fill="none" stroke="#3a3a3a" stroke-width="1.4" stroke-linecap="round"/><path d="M 260.7 506.3 L 266.4 506.4 L 272.1 505.9 M 271.9 506.3 L 272.4 512 L 272 517.7 M 272.1 517.5 L 266.4 518.8 L 260.7 517.2 M 260.8 517.7 L 261.2 512 L 260.5 506.3" fill="none" stroke="#3a3a3a" stroke-width="1.8" stroke-linecap="round"/><text x="286.4" y="516" font-family="Comic Sans MS, Chalkboard SE, Bradley Hand, cursive" font-size="9" fill="#3a3a3a" text-anchor="start">REQ-88251</text><text x="350.4" y="516" font-family="Comic Sans MS, Chalkboard SE, Bradley Hand, cursive" font-size="9" fill="#3a3a3a" text-anchor="start">Registered Nurse – L&amp;D</text><text x="470.4" y="516" font-family="Comic Sans MS, Chalkboard SE, Bradley Hand, cursive" font-size="9" fill="#3a3a3a" text-anchor="start">Ascension Via Christi</text><text x="596.8" y="516" font-family="Comic Sans MS, Chalkboard SE, Bradley Hand, cursive" font-size="9" fill="#3a3a3a" text-anchor="start">Registered Nurse</text><text x="689.6" y="516" font-family="Comic Sans MS, Chalkboard SE, Bradley Hand, cursive" font-size="9" fill="#3a3a3a" text-anchor="start">L&amp;D</text><text x="755.2" y="516" font-family="Comic Sans MS, Chalkboard SE, Bradley Hand, cursive" font-size="9" fill="#3a3a3a" text-anchor="start">09/08/2026</text><text x="822.4" y="516" font-family="Comic Sans MS, Chalkboard SE, Bradley Hand, cursive" font-size="9" fill="#3a3a3a" text-anchor="start">Days</text><text x="870.4" y="516" font-family="Comic Sans MS, Chalkboard SE, Bradley Hand, cursive" font-size="9" fill="#3a3a3a" text-anchor="start">$58.00/hr</text><path d="M 944 512 L 956.8 513.4 L 969.6 512.4" fill="none" stroke="#e6e6e6" stroke-width="1.5" stroke-linecap="round"/><path d="M 935.8 504.2 L 956.8 505.1 L 977.8 503.6 M 977.6 503.9 L 978.8 512 L 977.3 520.1 M 977.8 520.3 L 956.8 521.1 L 935.8 519.5 M 935.7 520.1 L 935.6 512 L 935.8 503.9" fill="none" stroke="#3a3a3a" stroke-width="1.4" stroke-linecap="round"/><text x="956.8" y="515.2" font-family="Comic Sans MS, Chalkboard SE, Bradley Hand, cursive" font-size="9" fill="#3a3a3a" text-anchor="middle">Open</text><text x="993.6" y="516" font-family="Comic Sans MS, Chalkboard SE, Bradley Hand, cursive" font-size="9" fill="#3a3a3a" text-anchor="start">Aya</text><path d="M 242.1 528 L 334.3 528.2 L 426.4 529.3 L 518.6 528.5 L 610.7 527.8 L 702.9 528.7 L 795 528.9 L 887.2 528.1 L 979.3 527.9 L 1071.5 527.8" fill="none" stroke="#3a3a3a" stroke-width="1.4" stroke-linecap="round"/><path d="M 260.7 538.9 L 266.4 538 L 272.1 538.9 M 271.7 538.3 L 273.2 544 L 272.3 549.7 M 272.1 549.4 L 266.4 549.2 L 260.7 549.5 M 260.9 549.7 L 261 544 L 261.3 538.3" fill="none" stroke="#3a3a3a" stroke-width="1.8" stroke-linecap="round"/><text x="286.4" y="548" font-family="Comic Sans MS, Chalkboard SE, Bradley Hand, cursive" font-size="9" fill="#3a3a3a" text-anchor="start">REQ-88270</text><text x="350.4" y="548" font-family="Comic Sans MS, Chalkboard SE, Bradley Hand, cursive" font-size="9" fill="#3a3a3a" text-anchor="start">Registered Nurse – ER</text><text x="470.4" y="548" font-family="Comic Sans MS, Chalkboard SE, Bradley Hand, cursive" font-size="9" fill="#3a3a3a" text-anchor="start">Tampa General Hosp</text><text x="596.8" y="548" font-family="Comic Sans MS, Chalkboard SE, Bradley Hand, cursive" font-size="9" fill="#3a3a3a" text-anchor="start">Registered Nurse</text><text x="689.6" y="548" font-family="Comic Sans MS, Chalkboard SE, Bradley Hand, cursive" font-size="9" fill="#3a3a3a" text-anchor="start">ER</text><text x="755.2" y="548" font-family="Comic Sans MS, Chalkboard SE, Bradley Hand, cursive" font-size="9" fill="#3a3a3a" text-anchor="start">09/15/2026</text><text x="822.4" y="548" font-family="Comic Sans MS, Chalkboard SE, Bradley Hand, cursive" font-size="9" fill="#3a3a3a" text-anchor="start">Nights</text><text x="870.4" y="548" font-family="Comic Sans MS, Chalkboard SE, Bradley Hand, cursive" font-size="9" fill="#3a3a3a" text-anchor="start">$63.10/hr</text><path d="M 945.1 544.4 L 956.8 544 L 968.5 544.3" fill="none" stroke="#e6e6e6" stroke-width="1.5" stroke-linecap="round"/><path d="M 935.7 536.4 L 956.8 536.7 L 977.9 536 M 978.1 535.9 L 978.4 544 L 978.1 552.1 M 977.8 551.8 L 956.8 551.5 L 935.8 552.2 M 936 552.2 L 937.3 544 L 936.5 535.8" fill="none" stroke="#3a3a3a" stroke-width="1.4" stroke-linecap="round"/><text x="956.8" y="547.2" font-family="Comic Sans MS, Chalkboard SE, Bradley Hand, cursive" font-size="9" fill="#9a9a9a" text-anchor="middle">Closed</text><text x="993.6" y="548" font-family="Comic Sans MS, Chalkboard SE, Bradley Hand, cursive" font-size="9" fill="#3a3a3a" text-anchor="start">Medefis</text><path d="M 245.3 559.8 L 336.7 559.3 L 428.2 559.9 L 519.6 561.2 L 611.1 561.2 L 702.5 560.6 L 794 561.2 L 885.4 559.6 L 976.9 558.8 L 1068.3 560.3" fill="none" stroke="#3a3a3a" stroke-width="1.4" stroke-linecap="round"/><path d="M 260.7 570.7 L 266.4 569.4 L 272.1 570.9 M 271.5 570.3 L 271.6 576 L 271.8 581.7 M 272.1 581.3 L 266.4 581.8 L 260.7 581.6 M 260.4 581.7 L 259.7 576 L 260.6 570.3" fill="none" stroke="#3a3a3a" stroke-width="1.8" stroke-linecap="round"/><text x="286.4" y="580" font-family="Comic Sans MS, Chalkboard SE, Bradley Hand, cursive" font-size="9" fill="#3a3a3a" text-anchor="start">REQ-88282</text><text x="350.4" y="580" font-family="Comic Sans MS, Chalkboard SE, Bradley Hand, cursive" font-size="9" fill="#3a3a3a" text-anchor="start">CT Technologist</text><text x="470.4" y="580" font-family="Comic Sans MS, Chalkboard SE, Bradley Hand, cursive" font-size="9" fill="#3a3a3a" text-anchor="start">Banner Desert Ctr</text><text x="596.8" y="580" font-family="Comic Sans MS, Chalkboard SE, Bradley Hand, cursive" font-size="9" fill="#3a3a3a" text-anchor="start">Allied</text><text x="689.6" y="580" font-family="Comic Sans MS, Chalkboard SE, Bradley Hand, cursive" font-size="9" fill="#3a3a3a" text-anchor="start">Radiology</text><text x="755.2" y="580" font-family="Comic Sans MS, Chalkboard SE, Bradley Hand, cursive" font-size="9" fill="#3a3a3a" text-anchor="start">08/22/2026</text><text x="822.4" y="580" font-family="Comic Sans MS, Chalkboard SE, Bradley Hand, cursive" font-size="9" fill="#3a3a3a" text-anchor="start">Mids</text><text x="870.4" y="580" font-family="Comic Sans MS, Chalkboard SE, Bradley Hand, cursive" font-size="9" fill="#3a3a3a" text-anchor="start">$49.90/hr</text><path d="M 942.5 575.8 L 956.8 575.6 L 971.1 575.8" fill="none" stroke="#e6e6e6" stroke-width="1.5" stroke-linecap="round"/><path d="M 935.8 568.3 L 956.8 569 L 977.8 568 M 977.7 567.9 L 978.1 576 L 977.2 584.1 M 977.9 584.3 L 956.8 583 L 935.7 583.7 M 935.6 584.1 L 935 576 L 935.6 567.9" fill="none" stroke="#3a3a3a" stroke-width="1.4" stroke-linecap="round"/><text x="956.8" y="579.2" font-family="Comic Sans MS, Chalkboard SE, Bradley Hand, cursive" font-size="9" fill="#3a3a3a" text-anchor="middle">Open</text><text x="993.6" y="580" font-family="Comic Sans MS, Chalkboard SE, Bradley Hand, cursive" font-size="9" fill="#3a3a3a" text-anchor="start">AMN</text><path d="M 249.4 604.3 L 261.6 603.7 L 273.8 605.1 M 273.4 604.7 L 274.2 616.8 L 273.9 628.9 M 273.7 629.2 L 261.6 628.7 L 249.5 629.1 M 249.7 629 L 248.3 616.8 L 249.8 604.6" fill="none" stroke="#3a3a3a" stroke-width="1.8" stroke-linecap="round"/><text x="261.6" y="620.8" font-family="Comic Sans MS, Chalkboard SE, Bradley Hand, cursive" font-size="9.6" fill="#9a9a9a" text-anchor="middle">&lt;</text><rect x="281" y="605.8" width="22" height="22" rx="3" fill="#4a4a4a"/><path d="M 279.8 605.1 L 292 604.8 L 304.2 605.1 M 304.2 604.6 L 303.2 616.8 L 303.9 629 M 304.1 628.6 L 292 628.8 L 279.9 629.2 M 279.8 629 L 279.4 616.8 L 280.2 604.6" fill="none" stroke="#3a3a3a" stroke-width="1.8" stroke-linecap="round"/><text x="292" y="620.8" font-family="Comic Sans MS, Chalkboard SE, Bradley Hand, cursive" font-size="9.6" fill="#ffffff" text-anchor="middle">1</text><path d="M 310.3 604.4 L 322.4 604.1 L 334.5 605.1 M 334.7 604.7 L 333.5 616.8 L 334.1 628.9 M 334.6 628.9 L 322.4 629.4 L 310.2 629.2 M 310.3 628.9 L 310.9 616.8 L 310 604.7" fill="none" stroke="#3a3a3a" stroke-width="1.8" stroke-linecap="round"/><text x="322.4" y="620.8" font-family="Comic Sans MS, Chalkboard SE, Bradley Hand, cursive" font-size="9.6" fill="#3a3a3a" text-anchor="middle">2</text><path d="M 340.6 604.8 L 352.8 605.9 L 365 605.3 M 364.8 604.6 L 364.7 616.8 L 364.5 629 M 365 629.2 L 352.8 627.7 L 340.6 628.3 M 341.1 629 L 340.6 616.8 L 340.4 604.6" fill="none" stroke="#3a3a3a" stroke-width="1.8" stroke-linecap="round"/><text x="352.8" y="620.8" font-family="Comic Sans MS, Chalkboard SE, Bradley Hand, cursive" font-size="9.6" fill="#3a3a3a" text-anchor="middle">3</text><text x="377.6" y="620.8" font-family="Comic Sans MS, Chalkboard SE, Bradley Hand, cursive" font-size="9.6" fill="#9a9a9a" text-anchor="start">...</text><path d="M 396.6 604.9 L 414.4 605.5 L 432.2 604.7 M 432.2 604.6 L 431.4 616.8 L 431.6 629 M 432.2 628.6 L 414.4 629 L 396.6 628.8 M 396.8 629 L 395.8 616.8 L 396.3 604.6" fill="none" stroke="#3a3a3a" stroke-width="1.8" stroke-linecap="round"/><text x="414.4" y="620.8" font-family="Comic Sans MS, Chalkboard SE, Bradley Hand, cursive" font-size="9.6" fill="#3a3a3a" text-anchor="middle">137</text><path d="M 438.2 605 L 450.4 605.6 L 462.6 604.3 M 462.2 604.7 L 463.2 616.8 L 462.4 628.9 M 462.5 629 L 450.4 628.1 L 438.3 628.9 M 438.2 629 L 437.7 616.8 L 438.9 604.6" fill="none" stroke="#3a3a3a" stroke-width="1.8" stroke-linecap="round"/><text x="450.4" y="620.8" font-family="Comic Sans MS, Chalkboard SE, Bradley Hand, cursive" font-size="9.6" fill="#9a9a9a" text-anchor="middle">&gt;</text><text x="478.4" y="620.8" font-family="Comic Sans MS, Chalkboard SE, Bradley Hand, cursive" font-size="9" fill="#9a9a9a" text-anchor="start">1 listing selected</text><path d="M 943.2 604.8 L 983.7 606.1 L 1024.3 604.4 L 1064.8 605.3 M 1063.7 604.6 L 1063.4 616.8 L 1064.2 629 M 1064.7 628.3 L 1024.2 629.4 L 983.8 629.8 L 943.3 628.7 M 944.1 628.9 L 944.4 616.8 L 943.6 604.7" fill="none" stroke="#3a3a3a" stroke-width="1.8" stroke-linecap="round"/><text x="1004" y="620.8" font-family="Comic Sans MS, Chalkboard SE, Bradley Hand, cursive" font-size="9" fill="#9a9a9a" text-anchor="middle">25 per page</text></svg>