<svg xmlns="http://www.w3.org/2000/svg" width="1400" height="1590" viewBox="0 0 1400 1590">
  <rect x="0" y="0" width="1400" height="1590" fill="#ffffff"/>

  <!-- Title -->
  <text x="40" y="46" font-family="Helvetica, Arial, sans-serif" font-size="22" font-weight="bold" fill="#333333">Logged events — review and repair</text>
  <line x1="40" y1="68" x2="1360" y2="68" stroke="#cccccc" stroke-width="1"/>

  <!-- Browser frame -->
  <rect x="40" y="95" width="1320" height="1455" rx="2" fill="#ffffff" stroke="#999999" stroke-width="1.5"/>

  <!-- Browser chrome -->
  <rect x="40" y="95" width="1320" height="50" rx="2" fill="#f2f2f2" stroke="#999999" stroke-width="1.5"/>
  <circle cx="66" cy="120" r="5" fill="#ffffff" stroke="#333333" stroke-width="1.5"/>
  <circle cx="84" cy="120" r="5" fill="#ffffff" stroke="#333333" stroke-width="1.5"/>
  <circle cx="102" cy="120" r="5" fill="#ffffff" stroke="#333333" stroke-width="1.5"/>
  <rect x="125" y="107" width="440" height="26" rx="13" fill="#ffffff" stroke="#333333" stroke-width="1.5"/>
  <text x="141" y="124" font-family="Helvetica, Arial, sans-serif" font-size="11" fill="#666666">app.logatot.com/logged_events?status=failed</text>

  <!-- App header bar -->
  <line x1="40" y1="200" x2="1360" y2="200" stroke="#333333" stroke-width="1.5"/>
  <rect x="65" y="160" width="26" height="26" rx="2" fill="#f2f2f2" stroke="#333333" stroke-width="1.5"/>
  <text x="101" y="181" font-family="Helvetica, Arial, sans-serif" font-size="14" font-weight="bold" fill="#333333">Bright Start Family Care</text>
  <rect x="1180" y="160" width="110" height="28" rx="14" fill="#ffffff" stroke="#333333" stroke-width="1.5"/>
  <circle cx="1202" cy="174" r="4" fill="#333333"/>
  <text x="1216" y="179" font-family="Helvetica, Arial, sans-serif" font-size="12" fill="#333333">Listening</text>
  <circle cx="1312" cy="174" r="14" fill="#f2f2f2" stroke="#333333" stroke-width="1.5"/>

  <!-- Sidebar -->
  <line x1="280" y1="200" x2="280" y2="1550" stroke="#333333" stroke-width="1.5"/>
  <rect x="65" y="222" width="190" height="34" rx="2" fill="#ffffff" stroke="#999999" stroke-width="1.5" stroke-dasharray="5 4"/>
  <text x="160" y="244" font-family="Helvetica, Arial, sans-serif" font-size="11" fill="#999999" text-anchor="middle">LOGO</text>

  <rect x="72" y="286" width="14" height="14" rx="2" fill="#ffffff" stroke="#333333" stroke-width="1.5"/>
  <text x="98" y="298" font-family="Helvetica, Arial, sans-serif" font-size="13" fill="#333333">Voiceboard</text>
  <rect x="72" y="326" width="14" height="14" rx="2" fill="#ffffff" stroke="#333333" stroke-width="1.5"/>
  <text x="98" y="338" font-family="Helvetica, Arial, sans-serif" font-size="13" fill="#333333">Children</text>

  <rect x="56" y="356" width="208" height="34" fill="#e8e8e8"/>
  <rect x="56" y="356" width="4" height="34" fill="#333333"/>
  <rect x="72" y="366" width="14" height="14" rx="2" fill="#ffffff" stroke="#333333" stroke-width="1.5"/>
  <text x="98" y="378" font-family="Helvetica, Arial, sans-serif" font-size="13" font-weight="bold" fill="#333333">Logged Events</text>
  <circle cx="242" cy="373" r="10" fill="#ffffff" stroke="#333333" stroke-width="1.5"/>
  <text x="242" y="377" font-family="Helvetica, Arial, sans-serif" font-size="10" fill="#333333" text-anchor="middle">3</text>

  <rect x="72" y="406" width="14" height="14" rx="2" fill="#ffffff" stroke="#333333" stroke-width="1.5"/>
  <text x="98" y="418" font-family="Helvetica, Arial, sans-serif" font-size="13" fill="#333333">Meals</text>

  <text x="72" y="460" font-family="Helvetica, Arial, sans-serif" font-size="10" fill="#999999">MODULES</text>
  <rect x="72" y="476" width="14" height="14" rx="2" fill="#ffffff" stroke="#333333" stroke-width="1.5"/>
  <text x="98" y="488" font-family="Helvetica, Arial, sans-serif" font-size="13" fill="#333333">Calendar</text>
  <rect x="72" y="512" width="14" height="14" rx="2" fill="#ffffff" stroke="#333333" stroke-width="1.5"/>
  <text x="98" y="524" font-family="Helvetica, Arial, sans-serif" font-size="13" fill="#333333">Chat</text>
  <rect x="72" y="548" width="14" height="14" rx="2" fill="#ffffff" stroke="#999999" stroke-width="1.5"/>
  <text x="98" y="560" font-family="Helvetica, Arial, sans-serif" font-size="13" fill="#999999">Custom Forms</text>
  <rect x="72" y="584" width="14" height="14" rx="2" fill="#ffffff" stroke="#999999" stroke-width="1.5"/>
  <text x="98" y="596" font-family="Helvetica, Arial, sans-serif" font-size="13" fill="#999999">Documents</text>

  <text x="72" y="638" font-family="Helvetica, Arial, sans-serif" font-size="10" fill="#999999">RESOURCES</text>
  <rect x="72" y="654" width="14" height="14" rx="2" fill="#ffffff" stroke="#333333" stroke-width="1.5"/>
  <text x="98" y="666" font-family="Helvetica, Arial, sans-serif" font-size="13" fill="#333333">Photo Gallery</text>
  <rect x="72" y="690" width="14" height="14" rx="2" fill="#ffffff" stroke="#333333" stroke-width="1.5"/>
  <text x="98" y="702" font-family="Helvetica, Arial, sans-serif" font-size="13" fill="#333333">Reports</text>

  <!-- Pane heading -->
  <text x="312" y="248" font-family="Helvetica, Arial, sans-serif" font-size="18" font-weight="bold" fill="#333333">Logged events</text>
  <text x="312" y="270" font-family="Helvetica, Arial, sans-serif" font-size="12" fill="#666666">Monday, July 20 · 50 captured · 3 need attention</text>
  <rect x="1000" y="230" width="150" height="32" rx="2" fill="#ffffff" stroke="#999999" stroke-width="1.5"/>
  <text x="1075" y="251" font-family="Helvetica, Arial, sans-serif" font-size="12" fill="#333333" text-anchor="middle">Jul 20, 2026</text>
  <rect x="1166" y="230" width="164" height="32" rx="2" fill="#ffffff" stroke="#333333" stroke-width="1.5"/>
  <text x="1248" y="251" font-family="Helvetica, Arial, sans-serif" font-size="12" fill="#333333" text-anchor="middle">+ Log manually</text>

  <!-- Status tabs -->
  <text x="312" y="308" font-family="Helvetica, Arial, sans-serif" font-size="13" font-weight="bold" fill="#333333">Needs attention (3)</text>
  <text x="470" y="308" font-family="Helvetica, Arial, sans-serif" font-size="13" fill="#666666">In progress</text>
  <text x="586" y="308" font-family="Helvetica, Arial, sans-serif" font-size="13" fill="#666666">Completed</text>
  <text x="698" y="308" font-family="Helvetica, Arial, sans-serif" font-size="13" fill="#666666">All</text>
  <line x1="312" y1="322" x2="1330" y2="322" stroke="#cccccc" stroke-width="1"/>
  <line x1="312" y1="322" x2="440" y2="322" stroke="#333333" stroke-width="2"/>

  <!-- Type filters + search -->
  <rect x="312" y="344" width="104" height="30" rx="15" fill="#333333" stroke="#333333" stroke-width="1.5"/>
  <text x="364" y="364" font-family="Helvetica, Arial, sans-serif" font-size="12" fill="#ffffff" text-anchor="middle">All types</text>
  <rect x="426" y="344" width="88" height="30" rx="15" fill="#ffffff" stroke="#333333" stroke-width="1.5"/>
  <text x="470" y="364" font-family="Helvetica, Arial, sans-serif" font-size="12" fill="#333333" text-anchor="middle">Diaper</text>
  <rect x="524" y="344" width="76" height="30" rx="15" fill="#ffffff" stroke="#333333" stroke-width="1.5"/>
  <text x="562" y="364" font-family="Helvetica, Arial, sans-serif" font-size="12" fill="#333333" text-anchor="middle">Nap</text>
  <rect x="610" y="344" width="86" height="30" rx="15" fill="#ffffff" stroke="#333333" stroke-width="1.5"/>
  <text x="653" y="364" font-family="Helvetica, Arial, sans-serif" font-size="12" fill="#333333" text-anchor="middle">Meals</text>
  <rect x="706" y="344" width="120" height="30" rx="15" fill="#ffffff" stroke="#333333" stroke-width="1.5"/>
  <text x="766" y="364" font-family="Helvetica, Arial, sans-serif" font-size="12" fill="#333333" text-anchor="middle">Health check</text>
  <rect x="1080" y="344" width="250" height="30" rx="2" fill="#ffffff" stroke="#999999" stroke-width="1.5"/>
  <text x="1096" y="364" font-family="Helvetica, Arial, sans-serif" font-size="11" fill="#666666">Search transcripts</text>

  <!-- ===== Failed event card 1 — the repair interaction ===== -->
  <rect x="312" y="400" width="1018" height="474" rx="2" fill="#ffffff" stroke="#333333" stroke-width="2"/>
  <rect x="312" y="400" width="1018" height="42" fill="#f2f2f2"/>
  <line x1="312" y1="442" x2="1330" y2="442" stroke="#333333" stroke-width="1.5"/>
  <rect x="328" y="409" width="82" height="24" rx="2" fill="#ffffff" stroke="#999999" stroke-width="1"/>
  <text x="369" y="425" font-family="Helvetica, Arial, sans-serif" font-size="11" fill="#333333" text-anchor="middle">10:15 AM</text>
  <rect x="420" y="409" width="110" height="24" rx="2" fill="#ffffff" stroke="#999999" stroke-width="1"/>
  <text x="475" y="425" font-family="Helvetica, Arial, sans-serif" font-size="11" fill="#333333" text-anchor="middle">Voice capture</text>
  <rect x="540" y="409" width="112" height="24" rx="2" fill="#ffffff" stroke="#333333" stroke-width="1.5"/>
  <text x="596" y="425" font-family="Helvetica, Arial, sans-serif" font-size="11" fill="#333333" text-anchor="middle">failed_name</text>
  <text x="1312" y="425" font-family="Helvetica, Arial, sans-serif" font-size="11" fill="#999999" text-anchor="end">captured 10:15:04 · clip 0:04</text>

  <!-- Raw utterance -->
  <text x="330" y="470" font-family="Helvetica, Arial, sans-serif" font-size="10" fill="#999999">RAW UTTERANCE</text>
  <text x="330" y="498" font-family="Helvetica, Arial, sans-serif" font-size="16" fill="#333333">“Mya had a wet diaper at ten fifteen”</text>

  <!-- Retained audio -->
  <rect x="330" y="516" width="982" height="44" rx="2" fill="#ffffff" stroke="#999999" stroke-width="1.5"/>
  <circle cx="356" cy="538" r="12" fill="#ffffff" stroke="#333333" stroke-width="1.5"/>
  <text x="384" y="542" font-family="Helvetica, Arial, sans-serif" font-size="11" fill="#666666">0:01</text>
  <line x1="424" y1="530" x2="424" y2="546" stroke="#999999" stroke-width="1"/>
  <line x1="434" y1="526" x2="434" y2="550" stroke="#999999" stroke-width="1"/>
  <line x1="444" y1="532" x2="444" y2="544" stroke="#999999" stroke-width="1"/>
  <line x1="454" y1="522" x2="454" y2="554" stroke="#999999" stroke-width="1"/>
  <line x1="464" y1="529" x2="464" y2="547" stroke="#999999" stroke-width="1"/>
  <line x1="474" y1="524" x2="474" y2="552" stroke="#999999" stroke-width="1"/>
  <line x1="484" y1="533" x2="484" y2="543" stroke="#999999" stroke-width="1"/>
  <line x1="494" y1="527" x2="494" y2="549" stroke="#999999" stroke-width="1"/>
  <line x1="504" y1="521" x2="504" y2="555" stroke="#999999" stroke-width="1"/>
  <line x1="514" y1="531" x2="514" y2="545" stroke="#999999" stroke-width="1"/>
  <line x1="524" y1="525" x2="524" y2="551" stroke="#999999" stroke-width="1"/>
  <line x1="534" y1="534" x2="534" y2="542" stroke="#999999" stroke-width="1"/>
  <line x1="544" y1="528" x2="544" y2="548" stroke="#999999" stroke-width="1"/>
  <line x1="554" y1="523" x2="554" y2="553" stroke="#999999" stroke-width="1"/>
  <line x1="564" y1="530" x2="564" y2="546" stroke="#999999" stroke-width="1"/>
  <line x1="574" y1="526" x2="574" y2="550" stroke="#999999" stroke-width="1"/>
  <line x1="584" y1="533" x2="584" y2="543" stroke="#999999" stroke-width="1"/>
  <line x1="594" y1="522" x2="594" y2="554" stroke="#999999" stroke-width="1"/>
  <line x1="604" y1="529" x2="604" y2="547" stroke="#999999" stroke-width="1"/>
  <line x1="614" y1="525" x2="614" y2="551" stroke="#999999" stroke-width="1"/>
  <line x1="624" y1="532" x2="624" y2="544" stroke="#999999" stroke-width="1"/>
  <line x1="634" y1="527" x2="634" y2="549" stroke="#999999" stroke-width="1"/>
  <line x1="644" y1="531" x2="644" y2="545" stroke="#999999" stroke-width="1"/>
  <line x1="654" y1="534" x2="654" y2="542" stroke="#999999" stroke-width="1"/>
  <text x="1224" y="542" font-family="Helvetica, Arial, sans-serif" font-size="11" fill="#666666">0:04</text>
  <rect x="1262" y="526" width="34" height="24" rx="2" fill="#ffffff" stroke="#333333" stroke-width="1"/>
  <text x="1279" y="542" font-family="Helvetica, Arial, sans-serif" font-size="11" fill="#333333" text-anchor="middle">1x</text>

  <!-- Understood / not understood -->
  <rect x="330" y="574" width="560" height="90" rx="2" fill="#f2f2f2" stroke="#999999" stroke-width="1.5"/>
  <text x="348" y="598" font-family="Helvetica, Arial, sans-serif" font-size="10" fill="#666666">UNDERSTOOD</text>
  <rect x="348" y="612" width="150" height="28" rx="2" fill="#ffffff" stroke="#999999" stroke-width="1"/>
  <text x="423" y="630" font-family="Helvetica, Arial, sans-serif" font-size="11" fill="#333333" text-anchor="middle">Event type: Diaper</text>
  <rect x="508" y="612" width="104" height="28" rx="2" fill="#ffffff" stroke="#999999" stroke-width="1"/>
  <text x="560" y="630" font-family="Helvetica, Arial, sans-serif" font-size="11" fill="#333333" text-anchor="middle">Detail: Wet</text>
  <rect x="622" y="612" width="176" height="28" rx="2" fill="#ffffff" stroke="#999999" stroke-width="1"/>
  <text x="710" y="630" font-family="Helvetica, Arial, sans-serif" font-size="11" fill="#333333" text-anchor="middle">Time: 10:15 AM · spoken</text>

  <rect x="906" y="574" width="406" height="90" rx="2" fill="#ffffff" stroke="#333333" stroke-width="2"/>
  <text x="924" y="598" font-family="Helvetica, Arial, sans-serif" font-size="10" fill="#666666">NOT UNDERSTOOD</text>
  <rect x="1046" y="583" width="130" height="22" rx="2" fill="#ffffff" stroke="#333333" stroke-width="1.5"/>
  <text x="1111" y="598" font-family="Helvetica, Arial, sans-serif" font-size="11" fill="#333333" text-anchor="middle">no child matched</text>
  <rect x="924" y="612" width="370" height="32" rx="2" fill="#ffffff" stroke="#333333" stroke-width="1.5"/>
  <text x="938" y="633" font-family="Helvetica, Arial, sans-serif" font-size="11" fill="#666666">Choose child — 12 enrolled</text>
  <text x="1280" y="633" font-family="Helvetica, Arial, sans-serif" font-size="11" fill="#333333">v</text>

  <!-- Word-chip repair — the signature interaction -->
  <rect x="330" y="678" width="982" height="140" rx="2" fill="#f2f2f2" stroke="#333333" stroke-width="1.5" stroke-dasharray="6 4"/>
  <text x="348" y="704" font-family="Helvetica, Arial, sans-serif" font-size="12" fill="#333333">We couldn’t spot the child’s name in this event. Help us by selecting a word below</text>
  <text x="348" y="722" font-family="Helvetica, Arial, sans-serif" font-size="12" fill="#333333">that sounds like the name. If there’s no match, no worries — just ignore this step.</text>
  <rect x="348" y="736" width="58" height="28" rx="2" fill="#ffffff" stroke="#333333" stroke-width="2"/>
  <text x="377" y="754" font-family="Helvetica, Arial, sans-serif" font-size="12" font-weight="bold" fill="#333333" text-anchor="middle">Mya</text>
  <rect x="416" y="736" width="52" height="28" rx="2" fill="#ffffff" stroke="#999999" stroke-width="1"/>
  <text x="442" y="754" font-family="Helvetica, Arial, sans-serif" font-size="12" fill="#333333" text-anchor="middle">had</text>
  <rect x="478" y="736" width="34" height="28" rx="2" fill="#ffffff" stroke="#999999" stroke-width="1"/>
  <text x="495" y="754" font-family="Helvetica, Arial, sans-serif" font-size="12" fill="#333333" text-anchor="middle">a</text>
  <rect x="522" y="736" width="50" height="28" rx="2" fill="#ffffff" stroke="#999999" stroke-width="1"/>
  <text x="547" y="754" font-family="Helvetica, Arial, sans-serif" font-size="12" fill="#333333" text-anchor="middle">wet</text>
  <rect x="582" y="736" width="68" height="28" rx="2" fill="#ffffff" stroke="#999999" stroke-width="1"/>
  <text x="616" y="754" font-family="Helvetica, Arial, sans-serif" font-size="12" fill="#333333" text-anchor="middle">diaper</text>
  <rect x="660" y="736" width="38" height="28" rx="2" fill="#ffffff" stroke="#999999" stroke-width="1"/>
  <text x="679" y="754" font-family="Helvetica, Arial, sans-serif" font-size="12" fill="#333333" text-anchor="middle">at</text>
  <rect x="708" y="736" width="48" height="28" rx="2" fill="#ffffff" stroke="#999999" stroke-width="1"/>
  <text x="732" y="754" font-family="Helvetica, Arial, sans-serif" font-size="12" fill="#333333" text-anchor="middle">ten</text>
  <rect x="766" y="736" width="66" height="28" rx="2" fill="#ffffff" stroke="#999999" stroke-width="1"/>
  <text x="799" y="754" font-family="Helvetica, Arial, sans-serif" font-size="12" fill="#333333" text-anchor="middle">fifteen</text>
  <line x1="348" y1="780" x2="1294" y2="780" stroke="#cccccc" stroke-width="1"/>
  <text x="348" y="804" font-family="Helvetica, Arial, sans-serif" font-size="12" font-weight="bold" fill="#333333">“Mya”</text>
  <text x="404" y="804" font-family="Helvetica, Arial, sans-serif" font-size="12" fill="#666666">appended to</text>
  <rect x="490" y="788" width="182" height="26" rx="2" fill="#ffffff" stroke="#333333" stroke-width="1.5"/>
  <text x="581" y="805" font-family="Helvetica, Arial, sans-serif" font-size="11" fill="#333333" text-anchor="middle">first_name_sounds_like</text>
  <text x="686" y="804" font-family="Helvetica, Arial, sans-serif" font-size="12" fill="#666666">for</text>
  <circle cx="726" cy="801" r="11" fill="#e8e8e8" stroke="#999999" stroke-width="1.5"/>
  <rect x="746" y="796" width="130" height="10" rx="5" fill="#e8e8e8"/>

  <!-- Card 1 footer -->
  <text x="330" y="852" font-family="Helvetica, Arial, sans-serif" font-size="11" fill="#666666">Every later “Mya” routes to this child without a second visit here.</text>
  <rect x="1032" y="832" width="160" height="30" rx="2" fill="#ffffff" stroke="#333333" stroke-width="1.5"/>
  <text x="1112" y="852" font-family="Helvetica, Arial, sans-serif" font-size="12" fill="#333333" text-anchor="middle">Remove from view</text>
  <rect x="1202" y="832" width="110" height="30" rx="2" fill="#333333" stroke="#333333" stroke-width="1.5"/>
  <text x="1257" y="852" font-family="Helvetica, Arial, sans-serif" font-size="12" font-weight="bold" fill="#ffffff" text-anchor="middle">Save event</text>

  <!-- ===== Failed event card 2 — partial parse, second language ===== -->
  <rect x="312" y="894" width="1018" height="340" rx="2" fill="#ffffff" stroke="#333333" stroke-width="1.5"/>
  <rect x="312" y="894" width="1018" height="42" fill="#f2f2f2"/>
  <line x1="312" y1="936" x2="1330" y2="936" stroke="#333333" stroke-width="1.5"/>
  <rect x="328" y="903" width="82" height="24" rx="2" fill="#ffffff" stroke="#999999" stroke-width="1"/>
  <text x="369" y="919" font-family="Helvetica, Arial, sans-serif" font-size="11" fill="#333333" text-anchor="middle">12:40 PM</text>
  <rect x="420" y="903" width="110" height="24" rx="2" fill="#ffffff" stroke="#999999" stroke-width="1"/>
  <text x="475" y="919" font-family="Helvetica, Arial, sans-serif" font-size="11" fill="#333333" text-anchor="middle">Voice capture</text>
  <rect x="540" y="903" width="146" height="24" rx="2" fill="#ffffff" stroke="#333333" stroke-width="1.5"/>
  <text x="613" y="919" font-family="Helvetica, Arial, sans-serif" font-size="11" fill="#333333" text-anchor="middle">failed_event_type</text>
  <text x="1312" y="919" font-family="Helvetica, Arial, sans-serif" font-size="11" fill="#999999" text-anchor="end">captured 12:41:52 · clip 0:03</text>

  <text x="330" y="964" font-family="Helvetica, Arial, sans-serif" font-size="10" fill="#999999">RAW UTTERANCE · ES</text>
  <text x="330" y="992" font-family="Helvetica, Arial, sans-serif" font-size="16" fill="#333333">“Jordan se acostó, estaba muy inquieto”</text>
  <text x="330" y="1014" font-family="Helvetica, Arial, sans-serif" font-size="11" fill="#666666">Translation stored alongside — “Jordan went down, he was very fussy”</text>

  <rect x="330" y="1028" width="982" height="44" rx="2" fill="#ffffff" stroke="#999999" stroke-width="1.5"/>
  <circle cx="356" cy="1050" r="12" fill="#ffffff" stroke="#333333" stroke-width="1.5"/>
  <text x="384" y="1054" font-family="Helvetica, Arial, sans-serif" font-size="11" fill="#666666">0:00</text>
  <line x1="424" y1="1042" x2="424" y2="1058" stroke="#999999" stroke-width="1"/>
  <line x1="434" y1="1038" x2="434" y2="1062" stroke="#999999" stroke-width="1"/>
  <line x1="444" y1="1044" x2="444" y2="1056" stroke="#999999" stroke-width="1"/>
  <line x1="454" y1="1034" x2="454" y2="1066" stroke="#999999" stroke-width="1"/>
  <line x1="464" y1="1041" x2="464" y2="1059" stroke="#999999" stroke-width="1"/>
  <line x1="474" y1="1036" x2="474" y2="1064" stroke="#999999" stroke-width="1"/>
  <line x1="484" y1="1045" x2="484" y2="1055" stroke="#999999" stroke-width="1"/>
  <line x1="494" y1="1039" x2="494" y2="1061" stroke="#999999" stroke-width="1"/>
  <line x1="504" y1="1033" x2="504" y2="1067" stroke="#999999" stroke-width="1"/>
  <line x1="514" y1="1043" x2="514" y2="1057" stroke="#999999" stroke-width="1"/>
  <line x1="524" y1="1037" x2="524" y2="1063" stroke="#999999" stroke-width="1"/>
  <line x1="534" y1="1046" x2="534" y2="1054" stroke="#999999" stroke-width="1"/>
  <line x1="544" y1="1040" x2="544" y2="1060" stroke="#999999" stroke-width="1"/>
  <line x1="554" y1="1035" x2="554" y2="1065" stroke="#999999" stroke-width="1"/>
  <line x1="564" y1="1042" x2="564" y2="1058" stroke="#999999" stroke-width="1"/>
  <line x1="574" y1="1038" x2="574" y2="1062" stroke="#999999" stroke-width="1"/>
  <line x1="584" y1="1045" x2="584" y2="1055" stroke="#999999" stroke-width="1"/>
  <line x1="594" y1="1034" x2="594" y2="1066" stroke="#999999" stroke-width="1"/>
  <line x1="604" y1="1041" x2="604" y2="1059" stroke="#999999" stroke-width="1"/>
  <line x1="614" y1="1037" x2="614" y2="1063" stroke="#999999" stroke-width="1"/>
  <line x1="624" y1="1044" x2="624" y2="1056" stroke="#999999" stroke-width="1"/>
  <line x1="634" y1="1039" x2="634" y2="1061" stroke="#999999" stroke-width="1"/>
  <line x1="644" y1="1043" x2="644" y2="1057" stroke="#999999" stroke-width="1"/>
  <line x1="654" y1="1046" x2="654" y2="1054" stroke="#999999" stroke-width="1"/>
  <text x="1224" y="1054" font-family="Helvetica, Arial, sans-serif" font-size="11" fill="#666666">0:03</text>
  <rect x="1262" y="1038" width="34" height="24" rx="2" fill="#ffffff" stroke="#333333" stroke-width="1"/>
  <text x="1279" y="1054" font-family="Helvetica, Arial, sans-serif" font-size="11" fill="#333333" text-anchor="middle">1x</text>

  <rect x="330" y="1086" width="560" height="90" rx="2" fill="#f2f2f2" stroke="#999999" stroke-width="1.5"/>
  <text x="348" y="1110" font-family="Helvetica, Arial, sans-serif" font-size="10" fill="#666666">UNDERSTOOD</text>
  <circle cx="362" cy="1138" r="12" fill="#e8e8e8" stroke="#999999" stroke-width="1.5"/>
  <rect x="382" y="1124" width="132" height="28" rx="2" fill="#ffffff" stroke="#999999" stroke-width="1"/>
  <text x="448" y="1142" font-family="Helvetica, Arial, sans-serif" font-size="11" fill="#333333" text-anchor="middle">Child matched</text>
  <rect x="524" y="1124" width="176" height="28" rx="2" fill="#ffffff" stroke="#999999" stroke-width="1"/>
  <text x="612" y="1142" font-family="Helvetica, Arial, sans-serif" font-size="11" fill="#333333" text-anchor="middle">Time: 12:40 PM · spoken</text>

  <rect x="906" y="1086" width="406" height="90" rx="2" fill="#ffffff" stroke="#333333" stroke-width="2"/>
  <text x="924" y="1110" font-family="Helvetica, Arial, sans-serif" font-size="10" fill="#666666">NOT UNDERSTOOD</text>
  <rect x="1060" y="1095" width="116" height="22" rx="2" fill="#ffffff" stroke="#333333" stroke-width="1.5"/>
  <text x="1118" y="1110" font-family="Helvetica, Arial, sans-serif" font-size="11" fill="#333333" text-anchor="middle">no event type</text>
  <rect x="924" y="1124" width="370" height="32" rx="2" fill="#ffffff" stroke="#333333" stroke-width="1.5"/>
  <text x="938" y="1145" font-family="Helvetica, Arial, sans-serif" font-size="11" fill="#666666">Choose event type</text>
  <text x="1280" y="1145" font-family="Helvetica, Arial, sans-serif" font-size="11" fill="#333333">v</text>

  <text x="330" y="1212" font-family="Helvetica, Arial, sans-serif" font-size="11" fill="#666666">Remaining words kept as the event note: “estaba muy inquieto”.</text>
  <rect x="1032" y="1192" width="160" height="30" rx="2" fill="#ffffff" stroke="#333333" stroke-width="1.5"/>
  <text x="1112" y="1212" font-family="Helvetica, Arial, sans-serif" font-size="12" fill="#333333" text-anchor="middle">Remove from view</text>
  <rect x="1202" y="1192" width="110" height="30" rx="2" fill="#333333" stroke="#333333" stroke-width="1.5"/>
  <text x="1257" y="1212" font-family="Helvetica, Arial, sans-serif" font-size="12" font-weight="bold" fill="#ffffff" text-anchor="middle">Save event</text>

  <!-- ===== Collapsed queue item ===== -->
  <rect x="312" y="1254" width="1018" height="52" rx="2" fill="#ffffff" stroke="#333333" stroke-width="1.5"/>
  <rect x="328" y="1268" width="82" height="24" rx="2" fill="#ffffff" stroke="#999999" stroke-width="1"/>
  <text x="369" y="1284" font-family="Helvetica, Arial, sans-serif" font-size="11" fill="#333333" text-anchor="middle">2:05 PM</text>
  <rect x="420" y="1268" width="112" height="24" rx="2" fill="#ffffff" stroke="#333333" stroke-width="1.5"/>
  <text x="476" y="1284" font-family="Helvetica, Arial, sans-serif" font-size="11" fill="#333333" text-anchor="middle">failed_name</text>
  <rect x="542" y="1268" width="146" height="24" rx="2" fill="#ffffff" stroke="#333333" stroke-width="1.5"/>
  <text x="615" y="1284" font-family="Helvetica, Arial, sans-serif" font-size="11" fill="#333333" text-anchor="middle">failed_event_type</text>
  <text x="704" y="1285" font-family="Helvetica, Arial, sans-serif" font-size="12" fill="#666666">“Kai and Nia both went down around one”</text>
  <rect x="1212" y="1266" width="100" height="28" rx="2" fill="#ffffff" stroke="#333333" stroke-width="1.5"/>
  <text x="1262" y="1284" font-family="Helvetica, Arial, sans-serif" font-size="12" fill="#333333" text-anchor="middle">Review</text>

  <!-- ===== Removed-but-retained row ===== -->
  <rect x="312" y="1326" width="1018" height="48" rx="2" fill="#ffffff" stroke="#999999" stroke-width="1.5"/>
  <rect x="328" y="1338" width="82" height="24" rx="2" fill="#ffffff" stroke="#999999" stroke-width="1"/>
  <text x="369" y="1354" font-family="Helvetica, Arial, sans-serif" font-size="11" fill="#333333" text-anchor="middle">9:05 AM</text>
  <rect x="420" y="1338" width="62" height="24" rx="2" fill="#ffffff" stroke="#999999" stroke-width="1"/>
  <text x="451" y="1354" font-family="Helvetica, Arial, sans-serif" font-size="11" fill="#333333" text-anchor="middle">Nap</text>
  <rect x="498" y="1345" width="380" height="10" rx="5" fill="#e8e8e8"/>
  <text x="1188" y="1354" font-family="Helvetica, Arial, sans-serif" font-size="11" fill="#666666" text-anchor="end">Removed from view 9:12 AM — retained in the record</text>
  <rect x="1212" y="1336" width="100" height="28" rx="2" fill="#ffffff" stroke="#333333" stroke-width="1.5"/>
  <text x="1262" y="1354" font-family="Helvetica, Arial, sans-serif" font-size="12" fill="#333333" text-anchor="middle">Undo</text>

  <!-- ===== Clean parses, collapsed ===== -->
  <rect x="312" y="1394" width="1018" height="44" rx="2" fill="#f2f2f2" stroke="#999999" stroke-width="1.5"/>
  <text x="330" y="1422" font-family="Helvetica, Arial, sans-serif" font-size="13" font-weight="bold" fill="#333333">Parsed cleanly today — 47</text>
  <rect x="510" y="1404" width="94" height="24" rx="2" fill="#ffffff" stroke="#999999" stroke-width="1"/>
  <text x="557" y="1420" font-family="Helvetica, Arial, sans-serif" font-size="11" fill="#333333" text-anchor="middle">Check in 11</text>
  <rect x="614" y="1404" width="82" height="24" rx="2" fill="#ffffff" stroke="#999999" stroke-width="1"/>
  <text x="655" y="1420" font-family="Helvetica, Arial, sans-serif" font-size="11" fill="#333333" text-anchor="middle">Diaper 14</text>
  <rect x="706" y="1404" width="78" height="24" rx="2" fill="#ffffff" stroke="#999999" stroke-width="1"/>
  <text x="745" y="1420" font-family="Helvetica, Arial, sans-serif" font-size="11" fill="#333333" text-anchor="middle">Meals 12</text>
  <rect x="794" y="1404" width="66" height="24" rx="2" fill="#ffffff" stroke="#999999" stroke-width="1"/>
  <text x="827" y="1420" font-family="Helvetica, Arial, sans-serif" font-size="11" fill="#333333" text-anchor="middle">Nap 8</text>
  <text x="1188" y="1420" font-family="Helvetica, Arial, sans-serif" font-size="11" fill="#666666" text-anchor="end">94% needed no correction</text>
  <rect x="1212" y="1402" width="100" height="28" rx="2" fill="#ffffff" stroke="#333333" stroke-width="1.5"/>
  <text x="1262" y="1420" font-family="Helvetica, Arial, sans-serif" font-size="12" fill="#333333" text-anchor="middle">Expand</text>

  <!-- ===== What is written on failure ===== -->
  <rect x="312" y="1456" width="1018" height="64" rx="2" fill="#ffffff" stroke="#999999" stroke-width="1.5" stroke-dasharray="6 4"/>
  <text x="330" y="1482" font-family="Helvetica, Arial, sans-serif" font-size="12" font-weight="bold" fill="#333333">Written on failure — nothing is dropped</text>
  <text x="330" y="1504" font-family="Helvetica, Arial, sans-serif" font-size="11" fill="#666666">status: failed · failed_name · failed_event_type · raw_utterance · translation · audio_url · spoken_at · account_id</text>
</svg>
